<svg width="62" height="97" viewBox="0 0 62 97" fill="none" xmlns="http://www.w3.org/2000/svg">
<ellipse cx="31.3963" cy="32.1504" rx="25.0721" ry="31.2373" fill="#90E07C"/>
<path fill-rule="evenodd" clip-rule="evenodd" d="M12.3985 42.9287C5.86596 42.9287 0.570312 48.2244 0.570312 54.7569C0.570312 58.8199 2.6189 62.4044 5.73951 64.5339C5.74357 64.8437 5.76194 65.1564 5.79526 65.4712L8.18482 88.0526C8.72314 93.1396 13.0138 97.0002 18.1293 97.0002H44.4797C49.5155 97.0002 53.7657 93.2556 54.4 88.26L57.2675 65.6786C57.353 65.0054 57.3697 64.341 57.3235 63.6919C59.8214 61.5232 61.4009 58.3245 61.4009 54.7569C61.4009 48.2244 56.1052 42.9287 49.5727 42.9287H12.3985Z" fill="#FFCE5D"/>
</svg>
