<svg width="56" height="55" viewBox="0 0 56 55" fill="none" xmlns="http://www.w3.org/2000/svg">
<path d="M32.8106 54.9999H13.8784V52.4977H32.7956C35.7429 52.4954 38.4102 51.2985 40.3398 49.365L52.1281 37.5766C52.8146 36.8931 53.2394 35.9473 53.2394 34.9024C53.2394 34.8845 53.2394 34.8667 53.2391 34.849V34.8517V34.8116C53.2394 34.7934 53.2396 34.7718 53.2396 34.7502C53.2396 32.6772 51.5591 30.9967 49.4862 30.9967C48.4163 30.9967 47.4509 31.4444 46.7672 32.1626L46.7657 32.1642L33.4811 45.4488H30.6935V42.9465H30.7211C32.65 42.9387 34.2106 41.3733 34.2106 39.4434C34.2106 39.2428 34.1938 39.0461 34.1614 38.8547L34.1643 38.8753C33.7866 37.1704 32.2877 35.9143 30.4955 35.9143C30.4658 35.9143 30.4361 35.9145 30.4066 35.9152L30.411 35.9151H20.7421L18.1523 34.634C16.7985 33.9467 15.2004 33.5442 13.5083 33.5442C11.0285 33.5442 8.75061 34.4089 6.95962 35.8532L6.9796 35.8376C4.68029 37.7227 3.22489 40.5634 3.22489 43.7439C3.22489 43.8005 3.22542 43.857 3.22628 43.9133L3.22617 43.9049V44.1951H0.723945V43.9299C0.723086 43.8757 0.722656 43.8116 0.722656 43.7475C0.722656 39.7811 2.54141 36.2395 5.39051 33.9113L5.41323 33.8933C7.61108 32.1177 10.4393 31.0429 13.5185 31.0429C15.6152 31.0429 17.5955 31.5413 19.3474 32.426L19.2733 32.392L21.3352 33.4129H30.3885C30.4234 33.4123 30.4645 33.4118 30.5058 33.4118C33.5074 33.4118 36.0153 35.5259 36.6217 38.3464L36.6292 38.3875V38.4326C36.6458 38.531 36.66 38.6286 36.6716 38.7253L44.9567 30.4302C46.0979 29.2365 47.7029 28.4945 49.4813 28.4945C52.9362 28.4945 55.737 31.2952 55.737 34.7502C55.737 34.7797 55.7368 34.8093 55.7365 34.8388V34.8343C55.7367 34.8499 55.7367 34.8684 55.7367 34.8868C55.7367 36.6258 55.0308 38.1999 53.8899 39.3383L42.1066 51.1215C39.7285 53.5066 36.4437 54.9864 32.8132 55H32.8107L32.8106 54.9999ZM30.5686 45.4413H18.6577V42.939H30.5686V45.4413ZM10.2501 0H16.2555C23.5351 0.00859374 29.434 5.90744 29.4426 13.1862V14.4382H23.412C16.1443 14.4126 10.2614 8.52075 10.25 1.25216V1.25109L10.2501 0ZM26.8677 11.9358C26.2135 6.60075 21.7134 2.50884 16.2562 2.50228H12.825C13.4803 7.82868 17.967 11.9152 23.4125 11.9359H23.4146L26.8677 11.9358ZM32.9707 16.8153H26.9402V15.5642C26.9488 8.28458 32.8477 2.38568 40.1264 2.37708H46.1577V3.62828C46.1491 10.9078 40.2503 16.8068 32.9715 16.8153H32.9707ZM29.5151 14.313H32.9707C38.4286 14.3064 42.9287 10.2145 43.5776 4.9312L43.5828 4.87942H40.1271C34.6692 4.88586 30.1691 8.97788 29.5202 14.2611L29.515 14.3129L29.5151 14.313ZM29.4425 34.6565H26.9402V13.1869H29.4425L29.4425 34.6565Z" fill="#74B588"/>
</svg>
