<svg width="46" height="51" viewBox="0 0 46 51" fill="none" xmlns="http://www.w3.org/2000/svg">
<path d="M19.1636 19.1304H18.7692C18.6958 19.0889 18.6224 19.0474 18.6316 19.0013C18.5353 19.0428 18.4114 19.0105 18.2738 18.9875C18.205 18.9736 18.1271 18.9644 18.0583 18.9598C17.9895 18.9552 17.9207 18.9644 17.8427 18.9829C17.7831 18.9552 17.8978 18.9598 17.8702 18.9322C17.8335 18.946 17.7923 18.9552 17.7418 18.9506C17.6914 18.9414 17.6317 18.9275 17.5584 18.8907H17.5767C17.3612 18.8215 17.2236 18.7293 17.0951 18.6187C16.9713 18.5081 16.8521 18.379 16.7328 18.1624L16.7099 18.2223C16.6594 18.1255 16.6594 18.1024 16.6457 18.0517C16.5861 18.0102 16.6136 18.084 16.6549 18.1485C16.6915 18.2177 16.7374 18.2822 16.6686 18.2592C16.6686 18.2131 16.6457 18.1531 16.609 18.0794C16.5952 18.0425 16.5769 18.001 16.5585 17.9595C16.5402 17.9181 16.5264 17.872 16.5127 17.8305C16.4531 17.6553 16.4347 17.4709 16.4897 17.4202C16.4806 17.2589 16.4393 17.4709 16.4301 17.305L16.4576 17.2589L16.4209 17.2128C16.4255 17.0929 16.4668 17.033 16.4897 17.0284C16.4897 17.0561 16.4989 17.1114 16.4989 17.1436C16.5356 16.9869 16.4852 16.7011 16.4989 16.6458L16.4806 16.821C16.4714 16.6965 16.4714 16.5628 16.4714 16.4246C16.4714 16.3554 16.4714 16.2863 16.4714 16.2171V16.1111L16.4668 15.9959C16.4485 15.687 16.3522 15.3828 16.1962 15.1615V15.2076C16.0816 15.0417 16.0357 14.9725 15.9944 14.8988C15.9715 14.8619 15.9485 14.825 15.9119 14.7789C15.8935 14.7559 15.8706 14.7282 15.8431 14.7006C15.811 14.6729 15.7788 14.6406 15.733 14.6038H15.7467C15.7055 14.5899 15.6642 14.5623 15.6137 14.5346C15.5679 14.507 15.5174 14.4701 15.467 14.4424C15.577 14.4793 15.311 14.2903 15.4532 14.341C15.2468 14.2534 15.1918 14.2442 15.1505 14.2442C15.1138 14.2442 15.0909 14.2488 14.9441 14.2534L14.8891 14.2027C14.8386 14.2027 14.8111 14.212 14.7699 14.2166C14.7286 14.2212 14.6735 14.2166 14.5681 14.2166C14.7469 14.1935 14.435 14.152 14.6368 14.1198C14.5222 14.0921 14.4213 14.0783 14.3296 14.0875C14.2837 14.0875 14.2424 14.0921 14.2011 14.1013C14.1644 14.1105 14.1278 14.1198 14.0911 14.129C14.0223 14.1474 13.9626 14.1705 13.9076 14.1797C13.848 14.1889 13.7975 14.1935 13.7333 14.1889C13.6508 14.2765 13.7517 14.2534 13.8572 14.2212C13.9672 14.1981 14.0819 14.1613 14.0269 14.1889C14.0773 14.1981 14.0406 14.2212 13.9718 14.2534C13.9397 14.2673 13.8984 14.2857 13.8572 14.2995C13.8159 14.318 13.7792 14.3318 13.7471 14.341C13.6783 14.3595 13.6141 14.3595 13.5178 14.3687C13.426 14.3825 13.3022 14.4148 13.1509 14.5346C13.183 14.5116 13.1784 14.5024 13.2105 14.4839C13.1784 14.5024 13.1509 14.5208 13.1233 14.5438C13.0958 14.5669 13.0729 14.5946 13.05 14.6222C12.9995 14.6729 12.9536 14.7374 12.8757 14.7882C12.8619 14.9034 12.7335 14.9679 12.784 15.0371C12.8436 14.9403 12.9032 14.8481 12.9812 14.7605C12.9536 14.802 12.9261 14.8389 12.9078 14.885C12.8894 14.9311 12.8665 14.9771 12.8436 15.0279C12.8206 15.0786 12.8023 15.1293 12.7702 15.1846C12.7381 15.2399 12.7106 15.2998 12.6693 15.3644C12.6693 15.3367 12.683 15.2445 12.7014 15.18C12.6418 15.2537 12.6326 15.3459 12.5822 15.4243C12.5638 15.4104 12.5638 15.3782 12.573 15.3367C12.5867 15.2952 12.6097 15.2399 12.6372 15.1846C12.6647 15.1247 12.7014 15.0693 12.7335 15.0094C12.7656 14.9495 12.8023 14.8988 12.8206 14.8435C12.7794 14.8757 12.7243 14.9633 12.6968 15.0325C12.6647 15.1016 12.6418 15.1431 12.6326 15.0739C12.6326 15.12 12.628 15.1661 12.6097 15.2076C12.5959 15.2537 12.5684 15.2952 12.5455 15.3413C12.5225 15.392 12.4996 15.4427 12.4812 15.498C12.4675 15.558 12.4583 15.6179 12.4629 15.687L12.4216 15.6594C12.417 15.7008 12.4308 15.7884 12.417 15.8622L12.3758 15.7147C12.3849 15.9267 12.2886 16.1341 12.3207 16.3047C12.3207 16.1157 12.3345 16.0927 12.3528 16.0973C12.3712 16.1065 12.3941 16.1388 12.417 16.0512C12.4721 16.5167 12.2978 16.3324 12.3116 16.8164C12.3116 16.7334 12.3437 16.5951 12.362 16.6919C12.3528 16.7933 12.3345 16.9224 12.307 16.9823C12.3161 17.328 12.3574 16.927 12.3849 17.0745C12.3253 17.1897 12.4125 17.2497 12.4216 17.3833H12.3712C12.362 17.4663 12.3482 17.517 12.3528 17.5447C12.3528 17.5769 12.3666 17.5862 12.3758 17.6C12.3941 17.623 12.417 17.6461 12.3528 17.7982C12.3482 17.7475 12.3345 17.6968 12.3253 17.6507C12.3161 17.706 12.3116 17.7613 12.2978 17.812L12.2565 17.7613C12.2473 17.8489 12.2336 17.9088 12.2107 17.9595C12.1969 17.9872 12.1831 18.0102 12.1694 18.0379C12.151 18.0656 12.1281 18.0932 12.1052 18.1255C12.1556 18.107 12.174 18.1946 12.0731 18.3237C11.9813 18.3882 12.0776 18.2499 11.9355 18.4205C11.9401 18.3928 11.9446 18.3606 11.963 18.3329C11.9722 18.3191 11.9813 18.3053 11.9951 18.2914C12.0089 18.2776 12.0272 18.2638 12.0501 18.2546C12.0455 18.2361 12.0501 18.1992 12.0501 18.1808C11.963 18.2499 11.8713 18.3882 11.8116 18.4389C11.8346 18.4205 11.8621 18.3974 11.8804 18.3928L11.7887 18.5219L11.6832 18.6418C11.6282 18.651 11.6603 18.6233 11.6832 18.5864C11.6328 18.6279 11.6098 18.6694 11.5273 18.7201C11.5273 18.674 11.5089 18.6418 11.6053 18.5588C11.5686 18.5864 11.5319 18.6233 11.4952 18.651C11.4539 18.6786 11.4172 18.7063 11.3713 18.7339C11.3438 18.7247 11.2154 18.7386 11.2475 18.7155C11.1695 18.7293 11.087 18.7708 10.9861 18.8031C10.9356 18.8215 10.8852 18.8307 10.8302 18.84C10.7797 18.8492 10.7109 18.8492 10.6513 18.84C10.6375 18.8492 10.61 18.8538 10.5596 18.863C10.3257 18.8538 10.1147 18.8031 9.8395 18.863C9.78447 18.84 9.7386 18.8123 9.67898 18.7939C9.55056 18.8077 9.61477 18.8261 9.65604 18.8492C9.69732 18.8722 9.71567 18.8953 9.51387 18.9183C9.2341 18.9783 9.39921 18.8722 9.29372 18.8676C9.15155 18.9368 8.94057 19.0658 8.68373 19.1488C8.75253 19.0935 8.82591 19.0751 8.89471 19.0336L8.69291 19.0889C8.78922 19.0059 8.88554 18.946 8.93599 18.9229C8.98185 18.8953 8.97726 18.8861 8.87178 18.8999C8.87636 18.9322 8.8305 18.9736 8.76629 19.0151C8.6975 19.0566 8.61035 19.1119 8.52321 19.1672C8.35351 19.2825 8.21134 19.43 8.24803 19.4899C8.21134 19.513 8.17465 19.5406 8.13337 19.5683C8.16089 19.5406 8.16089 19.5314 8.18382 19.5037C8.06916 19.5775 8.0554 19.6374 8.04623 19.702C8.04164 19.7342 8.03706 19.7711 8.01871 19.8126C8.00495 19.8541 7.98202 19.9094 7.93157 19.9785C7.86736 20.0753 7.81691 20.1399 7.83525 20.0615C7.80315 20.1445 7.78481 20.2321 7.76646 20.315C7.74811 20.3657 7.72977 20.3657 7.73436 20.3381C7.7206 20.3888 7.71143 20.4349 7.69767 20.4856C7.67932 20.5501 7.67473 20.6146 7.66556 20.6792C7.67473 20.7345 7.70225 20.8636 7.71601 20.9235C7.69308 21.0203 7.70225 20.8728 7.68391 20.9004C7.68391 20.9742 7.70683 21.0433 7.72059 21.1125C7.70683 21.1586 7.68849 21.1355 7.67014 21.0848C7.65638 21.0341 7.64263 20.9511 7.6518 20.8728C7.57383 20.9742 7.59218 21.0249 7.61052 21.0987C7.6197 21.1355 7.62887 21.1816 7.64263 21.2462C7.65639 21.3107 7.66097 21.3891 7.67014 21.5043L7.63346 21.4029C7.62429 21.3706 7.61511 21.3337 7.60593 21.3015C7.59217 21.3384 7.58301 21.3752 7.58301 21.4167C7.58301 21.4582 7.58759 21.4997 7.59677 21.5458C7.60135 21.5919 7.61511 21.638 7.62887 21.6933C7.64263 21.744 7.65638 21.8039 7.67014 21.8638C7.67014 21.8316 7.65638 21.7025 7.65638 21.6149C7.66556 21.5227 7.68391 21.4766 7.73436 21.5873C7.73895 21.6195 7.7527 21.6564 7.76646 21.7025C7.78022 21.7486 7.80774 21.7947 7.84902 21.8454C7.80315 21.8685 7.86736 21.9791 7.9545 22.1128L7.89488 22.1404C8.00954 22.2741 8.03247 22.2418 8.11502 22.3018C8.17464 22.3755 8.20217 22.4262 8.22051 22.4677C8.23886 22.5092 8.23886 22.5415 8.23886 22.5691C8.35351 22.6797 8.326 22.629 8.30306 22.5783C8.28472 22.5276 8.27096 22.4861 8.41314 22.5968C8.59659 22.7719 8.77546 22.8457 9.06899 22.9056C9.22951 22.9748 9.02771 22.9379 9.08275 22.9701L9.24786 22.9609C9.28455 22.9701 9.27079 22.984 9.26161 22.9886C9.39462 22.9886 9.28455 22.9287 9.48635 22.9425C9.51387 22.9102 9.61477 22.9425 9.7386 22.9701C9.85326 22.9932 9.99544 23.0208 10.1101 22.9794C10.1651 22.9978 10.0826 23.0208 10.1009 23.0439C10.4128 22.9886 10.3669 23.007 10.6238 22.9333C10.6971 22.9471 10.7751 22.9609 10.8347 22.9794C10.7614 22.9517 10.7705 22.924 10.821 22.901C10.8714 22.8779 10.9678 22.8549 11.0595 22.8457C11.0503 22.8411 11.0457 22.8365 11.0365 22.8319C11.0549 22.8319 11.0778 22.8365 11.0962 22.8411C11.0824 22.8411 11.0686 22.8411 11.0549 22.8411C11.0641 22.8457 11.0732 22.8549 11.0824 22.8595C11.0962 22.8549 11.1145 22.8503 11.1283 22.8411C11.1741 22.8503 11.22 22.8641 11.2659 22.8733C11.2613 22.8918 11.22 22.9056 11.1741 22.9148C11.1466 22.8918 11.1145 22.8733 11.0824 22.8549C11.0044 22.8826 10.9402 22.9148 10.9494 22.9563C10.9677 22.9517 10.9999 22.9517 11.0365 22.9563C11.0182 22.9655 11.0044 22.9701 11.0136 22.9794C11.0228 22.9886 11.0503 22.9794 11.0962 22.9655C11.1099 22.9932 11.1237 23.0208 11.1374 23.0485L11.1558 23.0255C11.2108 23.0485 11.2613 23.0669 11.3117 23.0946C11.3622 23.1223 11.4126 23.1453 11.4585 23.1776C11.4906 23.1776 11.5181 23.1868 11.5502 23.1914C11.5823 23.196 11.6098 23.2052 11.6419 23.2098C11.7062 23.2237 11.7658 23.2421 11.8346 23.2698C11.963 23.3251 12.1143 23.4127 12.2473 23.5786C12.1419 23.5279 12.1648 23.6109 12.1098 23.6431C12.1098 23.6109 12.0914 23.5832 12.0731 23.5509C12.0501 23.5233 12.018 23.4956 11.9813 23.468C11.9492 23.4403 11.9034 23.4173 11.8667 23.385C11.83 23.3573 11.7841 23.3297 11.7474 23.2974C11.8254 23.3666 11.7887 23.3758 11.7612 23.3666C11.8162 23.3942 11.8621 23.4265 11.9125 23.4588C11.963 23.4956 12.0089 23.5325 12.0547 23.5694C12.0089 23.597 12.0731 23.6524 12.1052 23.7399C12.1281 23.68 12.1786 23.7307 12.2336 23.8091C12.2886 23.8874 12.3391 24.0027 12.3758 24.0672C12.362 24.0764 12.3437 24.0764 12.3207 24.0534C12.3116 24.0396 12.2978 24.0257 12.2886 23.9981C12.2749 23.975 12.2565 23.9428 12.2428 23.9013C12.2519 24.0027 12.2978 24.0488 12.3482 24.0995C12.3758 24.1225 12.3987 24.1502 12.4125 24.1825C12.4262 24.2147 12.44 24.2562 12.4354 24.3069C12.4262 24.2608 12.4216 24.2378 12.4033 24.2239C12.4354 24.27 12.4491 24.3576 12.4537 24.4268C12.4537 24.4959 12.44 24.5466 12.4262 24.519V24.4775C12.4262 24.6158 12.4262 24.8647 12.4354 25.0721C12.4491 25.2795 12.4721 25.4547 12.5134 25.4777C12.5042 25.4777 12.4079 25.4363 12.3941 25.4178L12.5363 25.7036C12.5546 25.7405 12.573 25.7728 12.5913 25.8096C12.5913 25.8696 12.5913 25.9341 12.6005 25.9894C12.5776 25.9986 12.5592 26.0078 12.5363 26.0125C12.4812 26.0263 12.4216 26.0125 12.3941 25.8696C12.3941 25.911 12.3849 25.9571 12.3941 26.0171C12.4033 26.077 12.4125 26.1461 12.4446 26.2291C12.4446 26.1692 12.5271 26.0724 12.5455 26.1461C12.5225 26.2522 12.5271 26.2936 12.5271 26.3351C12.5271 26.3812 12.5363 26.4273 12.55 26.5656C12.5363 26.478 12.6693 26.5287 12.7243 26.6394C12.7014 26.6301 12.628 26.6993 12.5959 26.6624C12.6739 26.75 12.7656 26.8237 12.8573 26.8929C12.7977 26.8376 12.7656 26.9344 12.7885 27.0173C12.7885 26.9943 12.8298 27.0588 12.8849 27.128C12.9399 27.1971 13.0087 27.2755 13.05 27.2985C13.0179 27.2616 12.9903 27.2202 12.9674 27.1787C13.0912 27.3216 13.1921 27.3492 13.2884 27.3677C13.3343 27.3769 13.3848 27.3861 13.4398 27.3999C13.4948 27.4138 13.5545 27.4414 13.6324 27.4783C13.5866 27.4783 13.4673 27.5613 13.6324 27.6581C13.6829 27.6489 13.7975 27.6212 13.9305 27.5843C13.9397 27.5843 13.9489 27.5797 13.9581 27.5751C14.0819 27.6074 14.2057 27.6304 14.3387 27.635C14.3158 27.6442 14.2929 27.6535 14.2699 27.6627C14.192 27.6903 14.1094 27.7088 14.0314 27.7226C13.9535 27.7318 13.8755 27.741 13.8113 27.7364C13.9397 27.801 13.8388 27.7871 14.0498 27.8332C14.0865 27.8563 14.0498 27.8609 14.0039 27.8609C13.9581 27.8609 13.8893 27.8471 13.8572 27.8378C13.9397 27.8609 14.0223 27.8886 14.1094 27.9024C14.1507 27.9116 14.1966 27.9208 14.2378 27.9254L14.3662 27.9393C14.3571 27.907 14.4534 27.8932 14.5497 27.8701C14.646 27.8517 14.7377 27.8194 14.724 27.7964C14.6368 27.824 14.5497 27.8378 14.458 27.8517C14.3662 27.8609 14.2745 27.8701 14.1828 27.8701C14.1828 27.8517 14.1966 27.8332 14.2332 27.8194C14.2699 27.801 14.3204 27.7825 14.38 27.7641C14.4993 27.7318 14.6552 27.6903 14.8203 27.6673C14.8616 27.6673 14.857 27.7042 14.8341 27.741C14.8157 27.7733 14.7836 27.8102 14.7882 27.8194C14.8341 27.7964 15.1001 27.6949 15.1322 27.6949C15.0909 27.7226 15.0496 27.7549 15.0038 27.7779C15.1001 27.7641 15.1735 27.7088 15.2422 27.6627C15.311 27.6074 15.3844 27.5659 15.4991 27.529C15.5725 27.4967 15.7467 27.4553 15.7376 27.4184C15.6413 27.4322 15.5541 27.3677 15.4991 27.2985C15.5679 27.2478 15.6321 27.1971 15.6917 27.1372C15.6917 27.1464 15.7009 27.1556 15.7009 27.1648L15.7376 27.1326L15.7192 27.1141C15.7789 27.0542 15.8339 26.9897 15.8843 26.9205C15.9119 26.9252 15.9119 26.9712 15.9073 27.0173C15.9073 27.0773 15.8889 27.1418 15.9485 27.1141C15.9394 27.1003 15.9669 27.0266 15.9761 26.9989C16.0357 26.9436 16.0036 27.0634 16.0999 26.9067C16.0816 26.8744 16.1274 26.7961 16.1549 26.7546C16.1687 26.7315 16.1779 26.7177 16.1687 26.7223C16.1641 26.7269 16.1412 26.7546 16.0907 26.8053C16.1274 26.7269 16.1503 26.6855 16.1779 26.644C16.1916 26.6209 16.2054 26.6025 16.2237 26.5702C16.2375 26.5426 16.2512 26.5057 16.2696 26.455C16.2375 26.478 16.2191 26.4227 16.21 26.3443C16.2054 26.3167 16.2008 26.289 16.2008 26.2614C16.2191 26.1922 16.2329 26.1277 16.2421 26.0539C16.2421 26.0539 16.2467 26.0493 16.2512 26.0447C16.2742 25.8788 16.2788 25.7451 16.2879 25.6206C16.2971 25.4962 16.3063 25.3717 16.3063 25.215C16.3246 25.1873 16.343 25.0352 16.3705 25.0998C16.3567 25.0537 16.3338 25.0122 16.3338 24.9154C16.3934 24.7264 16.343 25.132 16.4164 24.9891C16.3751 24.9799 16.3613 24.7356 16.3384 24.6019C16.2742 24.6434 16.3246 24.92 16.3476 25.0583C16.32 25.0583 16.2879 25.026 16.2604 24.9753V24.6388C16.2604 24.4083 16.3063 24.1917 16.3797 23.9889C16.4255 23.9013 16.4897 23.7538 16.5906 23.6109C16.7236 23.4173 16.9209 23.2329 17.086 23.1499C17.1181 23.1176 17.1731 23.0669 17.1777 23.0439C17.4437 22.8918 17.751 22.8042 18.0812 22.8042H18.416C18.416 22.8042 18.416 22.818 18.416 22.8272L18.5811 22.8042H18.5995C18.5995 22.8042 18.5399 22.8319 18.5903 22.8411C18.5903 22.8272 18.6224 22.8134 18.6591 22.8042H18.9297C18.9297 22.8042 18.9389 22.8042 18.9434 22.8042C18.9434 22.8042 18.9526 22.8042 18.9572 22.8042H19.1682C19.1682 22.8042 19.1774 22.8042 19.1819 22.8042C19.1911 22.8042 19.2003 22.8042 19.214 22.8042C19.2278 22.7996 19.2461 22.7996 19.2599 22.7996C20.2276 22.7535 20.9981 21.9514 20.9981 20.965C20.9981 19.9509 20.1772 19.1258 19.1682 19.1258L19.1636 19.1304ZM7.66098 21.366C7.72977 21.4213 7.71601 21.472 7.72518 21.5781C7.70225 21.5227 7.63804 21.4167 7.66098 21.366ZM11.2521 22.9701C11.298 22.9747 11.3484 23.0024 11.3989 23.0301C11.3576 23.0301 11.3117 23.0024 11.2521 22.9701Z" fill="#90E07C"/>
<path d="M7.82129 20.0615L7.84882 19.9785C7.83506 20.0154 7.82588 20.043 7.82129 20.0615Z" fill="#90E07C"/>
<path d="M7.6377 20.6608L7.65604 20.6792C7.65145 20.6469 7.64228 20.6377 7.6377 20.6608Z" fill="#90E07C"/>
<path d="M10.8213 22.9747C10.8488 22.9886 10.8947 22.9978 10.9497 23.0116C10.9084 22.9978 10.8626 22.9886 10.8213 22.9747Z" fill="#90E07C"/>
<path d="M10.6468 18.8446L10.7339 18.7985C10.5963 18.7985 10.656 18.8215 10.6468 18.8446Z" fill="#90E07C"/>
<path d="M16.4987 17.1436C16.4987 17.1436 16.4987 17.1621 16.4941 17.1667C16.4987 17.1667 16.4987 17.1574 16.4987 17.1436Z" fill="#90E07C"/>
<path d="M16.2422 26.0539C16.2422 26.0539 16.2422 26.0539 16.2422 26.0585C16.2559 26.0401 16.2514 26.0401 16.2422 26.0539Z" fill="#90E07C"/>
<path d="M12.7012 15.1846C12.7012 15.1846 12.7103 15.1753 12.7149 15.1707C12.7379 15.097 12.7241 15.1246 12.7012 15.1846Z" fill="#90E07C"/>
<path d="M12.3574 25.6115C12.3849 25.6668 12.3987 25.7083 12.3987 25.7497C12.3987 25.7866 12.3987 25.8235 12.3987 25.8742C12.44 25.8419 12.4813 25.8097 12.5225 25.782L12.362 25.6115H12.3574Z" fill="#90E07C"/>
<path d="M7.72559 20.3381C7.72559 20.3381 7.73476 20.3058 7.73934 20.292C7.73017 20.3104 7.72559 20.3243 7.72559 20.3381Z" fill="#90E07C"/>
<path d="M10.963 22.9932C10.963 22.9932 10.9493 22.9747 10.9447 22.9655C10.9263 22.9701 10.9263 22.9793 10.963 22.9932Z" fill="#90E07C"/>
<path d="M10.6279 18.8538H10.6371C10.6371 18.8538 10.6463 18.8492 10.6463 18.8446L10.6279 18.8538Z" fill="#90E07C"/>
<path d="M16.0266 27.0588C15.9899 27.1003 15.9624 27.1188 15.9395 27.1234C15.944 27.1326 15.9716 27.1234 16.0266 27.0588Z" fill="#90E07C"/>
<path d="M17.6865 22.8503C17.7416 22.8411 17.8012 22.8411 17.8608 22.8365H17.8104C17.7691 22.8365 17.7278 22.8411 17.6911 22.8503H17.6865Z" fill="#90E07C"/>
<path d="M16.4209 24.0165L16.4759 24.0442C16.4759 24.0165 16.4759 23.9843 16.4851 23.9566C16.4576 23.9981 16.4484 23.9981 16.4209 24.0165Z" fill="#90E07C"/>
<path d="M16.3662 24.4637C16.3662 24.4637 16.4029 24.7218 16.4121 24.5005C16.3937 24.4821 16.4121 24.3023 16.3662 24.4637Z" fill="#90E07C"/>
<path d="M13.4264 27.6074C13.3897 27.5797 13.353 27.552 13.3852 27.5567C13.243 27.5013 13.1925 27.4322 13.2063 27.5336C13.3026 27.6212 13.3301 27.6074 13.3485 27.6028C13.3668 27.5935 13.3806 27.5889 13.4723 27.6581C13.5044 27.6581 13.4631 27.635 13.4264 27.6074Z" fill="#90E07C"/>
<path d="M13.3848 27.5566C13.3848 27.5566 13.4306 27.5751 13.4582 27.5843C13.4169 27.5659 13.3985 27.5613 13.3848 27.5566Z" fill="#90E07C"/>
<path d="M7.78895 22.0528H7.80729C7.80729 22.0251 7.78894 21.9929 7.75684 21.9191C7.76601 21.9652 7.77059 22.0113 7.78435 22.0528H7.78895Z" fill="#90E07C"/>
<path d="M7.86766 19.8495L7.84473 19.8818L7.93187 19.8495H7.86766Z" fill="#90E07C"/>
<path d="M9.3622 18.8031C9.40806 18.8031 9.4264 18.8031 9.41265 18.7662C9.35302 18.7755 9.28882 18.7893 9.22461 18.8031C9.27965 18.7939 9.33009 18.8031 9.3622 18.8031Z" fill="#90E07C"/>
<path d="M9.22535 18.8077C9.22535 18.8077 9.18406 18.8169 9.16113 18.8215C9.17948 18.8169 9.20242 18.8123 9.22535 18.8077Z" fill="#90E07C"/>
<path d="M38.1647 39.3203C38.1647 39.3203 38.1647 39.3388 38.1647 39.348L38.1876 39.3388C38.1876 39.242 38.1738 39.1728 38.1647 39.2281V38.97C38.2014 39.1267 38.3252 39.0161 38.394 38.864C38.3756 38.8594 38.3619 38.8594 38.339 38.675C38.316 38.7395 38.2885 39.0806 38.2518 38.9285C38.2335 38.6842 38.2656 38.7303 38.2885 38.6104C38.2426 38.698 38.2197 38.3892 38.1647 38.3523V36.8773C38.1647 36.8773 38.1784 36.8865 38.183 36.868L38.1738 36.7297C38.2197 36.6053 38.2335 36.9879 38.2564 36.8127C38.2885 36.9971 38.3344 37.2045 38.3114 37.4627L38.2518 37.5134C38.2518 37.5134 38.2885 37.3428 38.2702 37.2737C38.2977 37.3797 38.1876 37.6701 38.2702 37.7899L38.3114 37.6102C38.3435 37.7946 38.4078 38.0204 38.3894 38.2509C38.449 38.1449 38.3802 38.2002 38.4536 38.0342C38.3665 38.1771 38.4536 37.4488 38.3619 37.6747C38.4444 37.5088 38.3986 37.3843 38.4674 37.1677C38.449 37.1723 38.4307 37.246 38.4399 37.0524C38.4353 37.0432 38.4261 37.0248 38.4215 37.0109C38.4215 37.0063 38.4215 37.0017 38.4215 36.9971C38.4215 36.9971 38.4215 37.0017 38.4215 37.0063C38.4215 36.9971 38.4215 36.9971 38.4215 37.0063C38.4123 37.0524 38.4032 37.0893 38.3894 37.1031C38.3435 37.0063 38.3435 36.7021 38.3206 36.5961C38.3298 36.4808 38.3435 36.6422 38.3665 36.5822L38.3298 36.4255C38.3756 36.4117 38.4032 36.1213 38.4307 36.3932V36.1489C38.4582 36.006 38.4674 35.8124 38.449 35.688C38.4582 35.5727 38.3986 35.3976 38.4353 35.499L38.4078 35.121H38.4169C38.4215 34.743 38.3435 34.3466 38.4215 33.9179C38.4123 33.7934 38.394 33.6598 38.4078 33.4523L38.449 33.4109C38.4444 33.3279 38.449 33.208 38.4582 33.0974C38.4582 33.0467 38.4582 32.9776 38.4582 32.9268C38.4582 32.8715 38.4399 32.8347 38.4307 32.8116C38.472 32.6964 38.4169 32.4382 38.2656 32.217C38.1234 31.9865 37.8895 31.8159 37.7427 31.7191L37.706 31.756C37.5042 31.6316 37.2657 31.5716 36.9768 31.5809L36.9951 31.627C36.775 31.6592 36.454 31.5947 36.1237 31.5993C36.1467 31.5809 36.2292 31.5855 36.2889 31.5993C35.8944 31.4979 35.4587 31.673 35.101 31.5993C35.0138 31.6177 34.945 31.6085 34.8854 31.5993C34.8946 31.5993 34.8992 31.5993 34.9084 31.5993C34.8992 31.5993 34.8854 31.5993 34.8717 31.5993C34.8304 31.5901 34.7937 31.5809 34.7478 31.5762C34.7845 31.5855 34.8212 31.5947 34.8533 31.5993C34.7845 31.5993 34.679 31.6039 34.5781 31.6177L34.5369 31.567C34.5369 31.567 34.5231 31.567 34.5139 31.567C34.413 31.5486 34.4314 31.5901 34.4864 31.627C34.436 31.6362 34.3901 31.6454 34.3534 31.6546C34.2708 31.5762 34.0874 31.6823 33.9727 31.5993C33.9085 31.6362 33.5233 31.6316 33.4224 31.7007C33.3077 31.6915 33.1976 31.6823 33.0967 31.7053L33.0463 31.6454L32.7986 31.7284C32.6473 31.6915 32.5831 31.6684 32.7344 31.6223C32.3721 31.6961 32.4409 31.65 32.1336 31.7238L32.1474 31.6823C32.0373 31.6823 31.863 31.7376 31.7942 31.7053C31.5465 31.6269 30.5742 31.6961 29.9413 31.6223C30.0651 31.7422 29.6478 31.5716 29.6203 31.6592C29.5836 31.6316 29.4964 31.6177 29.5973 31.5901C29.2763 31.6177 29.1112 31.544 28.891 31.6223C28.8543 31.5947 28.9598 31.5809 28.9277 31.567C28.9002 31.5716 28.8268 31.5901 28.7901 31.5762C28.758 31.5578 28.836 31.5532 28.8864 31.5394C28.5562 31.544 28.5241 31.6316 28.5012 31.7099C28.3361 31.673 28.2489 31.6777 28.1297 31.7284C28.0701 31.7007 27.9738 31.673 28.1801 31.6638C28.0655 31.6638 27.4784 31.627 27.4647 31.6915C27.428 31.673 27.3041 31.6869 27.272 31.6915C27.0152 31.6915 26.9923 31.6823 26.7354 31.6915L26.8042 31.7007C26.7538 31.7422 26.7033 31.7422 26.63 31.7422C26.5612 31.7422 26.474 31.7376 26.3639 31.7698V31.7606C26.3043 31.7698 26.2539 31.7837 26.2126 31.7929C26.1713 31.8021 26.1392 31.8159 26.1163 31.8298C26.0658 31.8528 26.0429 31.8666 26.0245 31.8851C25.9833 31.922 25.9282 31.9358 25.7218 32.0925C25.7402 32.0925 25.7585 32.1017 25.7769 32.1063C25.7952 32.1617 25.7127 32.2216 25.6118 32.3276C25.5155 32.429 25.41 32.5811 25.3962 32.7332C25.4146 32.701 25.4283 32.6687 25.4513 32.6411C25.4467 32.6825 25.4329 32.724 25.41 32.7747C25.3916 32.8208 25.3595 32.8761 25.3366 32.9315C25.2861 33.0513 25.2449 33.1481 25.2357 33.2265C25.2265 33.2587 25.2219 33.1758 25.2128 33.1297C25.1531 33.5169 25.277 33.1804 25.2907 33.4708C25.2586 33.5261 25.2036 33.4016 25.199 33.5952C25.1715 33.692 25.3091 34.1576 25.2449 34.425C25.2724 34.365 25.2953 34.3097 25.3183 34.4434C25.3274 34.6508 25.2173 35.0012 25.2999 35.1855C25.2907 35.2132 25.2861 35.2224 25.2816 35.2224C25.3045 35.3791 25.3182 35.7341 25.3641 35.8263C25.199 35.9738 25.4467 36.8035 25.2907 36.7989L25.2999 37.2829L25.2861 37.2691C25.277 37.5779 25.3137 37.6885 25.3504 37.7946C25.3412 37.8683 25.3274 37.813 25.3183 37.8084C25.2861 38.2601 25.2953 38.3062 25.3687 38.6842L25.3183 38.7257C25.3458 38.8271 25.2403 39.3802 25.2999 39.8228C25.2953 39.8228 25.2861 39.8089 25.277 39.7721C25.3366 40.2699 25.1394 40.9659 25.3183 41.1503L25.3641 41.4776C25.3779 41.0535 25.4421 41.5421 25.4742 41.367C25.4834 41.5329 25.4191 41.8003 25.41 41.5928L25.4192 41.5606C25.3228 41.4868 25.387 42.0907 25.3228 42.0768C25.3228 42.4963 25.3137 42.9112 25.2999 43.3168C25.2953 43.5196 25.2861 43.7225 25.2816 43.9207C25.2816 44.1558 25.332 44.3908 25.4421 44.5937C25.4467 44.5522 25.4558 44.5061 25.465 44.4692C25.5063 44.5614 25.5567 44.6536 25.6164 44.732C25.6531 44.8057 25.6347 44.861 25.5063 44.672C25.5109 44.7043 25.5338 44.7366 25.5567 44.7688C25.5843 44.8011 25.6164 44.8334 25.6485 44.8564C25.7127 44.9071 25.7769 44.9302 25.7861 44.9302C25.942 45.0777 25.9007 45.0685 25.8227 45.0316C25.7494 44.9947 25.6485 44.9209 25.6989 44.967C25.7448 45.0085 25.7952 45.05 25.8457 45.0823L25.8182 45.05C25.887 45.0869 25.9282 45.0961 25.9833 45.1145C26.0108 45.1238 26.0383 45.1376 26.075 45.1514C26.1117 45.1653 26.1576 45.1883 26.2218 45.2113C26.2997 45.2482 26.3181 45.2621 26.3227 45.2759C26.3273 45.2897 26.3227 45.2943 26.3548 45.3035C26.3548 45.3035 26.3731 45.322 26.4557 45.3266C26.5199 45.3404 26.5887 45.345 26.6575 45.3496C26.7263 45.3496 26.7767 45.3496 26.8363 45.3542L26.6987 45.2943C26.8501 45.2667 27.0198 45.2943 26.8639 45.2298C27.0978 45.3312 28.1435 45.2667 28.2856 45.2989C28.4966 45.2574 28.7076 45.2574 28.969 45.2621C28.9048 45.2482 28.8635 45.1837 29.0882 45.1929C29.0057 45.3266 29.501 45.2528 29.6799 45.3496C29.5194 45.2851 30.3174 45.3358 30.0651 45.2436C30.2532 45.2528 30.0743 45.2943 30.2165 45.3266C30.6614 45.2759 31.198 45.3589 31.7529 45.345C31.7621 45.3266 31.6704 45.2989 31.7896 45.2713L32.0786 45.3589C32.1886 45.3496 32.1795 45.2574 32.3767 45.3174C32.3492 45.3035 32.3079 45.2805 32.3767 45.2759C33.4591 45.3635 34.5827 45.2067 35.6834 45.3681C35.5367 45.3358 35.633 45.3312 35.7477 45.3266C35.6743 45.3174 35.7477 45.2805 35.7339 45.2574L36.1925 45.3266C36.2751 45.2574 36.6833 45.3266 36.7337 45.2574L36.587 45.2713C36.6924 45.2298 36.6007 45.1837 36.4998 45.133H36.9539C37.6189 45.133 38.1647 44.5844 38.1647 43.9161V39.3157V39.3203ZM38.1647 38.9423V38.6289C38.183 38.7072 38.1876 38.8271 38.1647 38.9423ZM38.3986 35.9692C38.3986 35.9692 38.3986 35.9692 38.3986 35.9646C38.4169 35.8309 38.4123 35.877 38.3986 35.9692ZM38.2885 34.8306C38.3114 35.1302 38.2335 34.9597 38.2472 35.0104C38.2335 35.5727 38.394 35.4898 38.3344 35.9553C38.2793 36.1397 38.2243 35.9646 38.1876 36.006C38.1693 35.7617 38.2243 35.6327 38.2197 35.4667L38.1922 35.6695C38.1738 35.5912 38.1601 35.4298 38.1784 35.3423C38.1738 35.3607 38.1693 35.3884 38.1647 35.4252V34.2728C38.2197 34.3835 38.2656 34.5863 38.2885 34.8306ZM38.1601 33.0375C38.1601 32.9591 38.1509 32.8808 38.1372 32.8024C38.1693 32.8623 38.1968 32.9315 38.2014 32.996C38.1876 32.9868 38.1693 33.0144 38.1601 33.0375ZM37.2199 31.7238C37.2199 31.7238 37.3529 31.7745 37.4584 31.8436C37.5684 31.9174 37.6648 32.0095 37.6877 32.0602C37.6969 32.0787 37.7014 32.0879 37.6969 32.0971C37.6189 32.0372 37.5363 31.9865 37.4492 31.945L37.4767 31.8713C37.4767 31.8713 37.4354 31.9081 37.4125 31.9266C37.3254 31.8897 37.2336 31.862 37.1373 31.8482C37.1465 31.7883 37.1694 31.7376 37.2153 31.7238H37.2199ZM35.7247 31.6869L35.7889 31.7191L36.0549 31.6823C35.9862 31.7191 35.8623 31.7745 35.7247 31.8298H35.289C35.4174 31.7652 35.5688 31.7053 35.7293 31.6869H35.7247ZM33.4086 31.7053C33.4086 31.7053 33.3948 31.7145 33.3903 31.7238C33.3903 31.7145 33.3582 31.7053 33.4086 31.7053ZM32.7573 31.7422C32.7573 31.7422 32.7482 31.7975 32.7573 31.8344H32.5555L32.7573 31.7422ZM28.4232 31.756C28.4645 31.7652 28.4278 31.7883 28.3774 31.8159C28.4003 31.8113 28.4186 31.8067 28.437 31.8021C28.4828 31.8113 28.5012 31.8252 28.5012 31.8344H28.3407C28.3407 31.8344 28.3682 31.8206 28.3774 31.8159C28.3544 31.8206 28.3269 31.8298 28.2994 31.8344H28.226C28.171 31.8159 28.1297 31.7975 28.0976 31.7929L28.4278 31.756H28.4232ZM26.3869 45.3035L26.3273 45.2759C26.396 45.2897 26.419 45.2897 26.4236 45.2943C26.4236 45.2943 26.4052 45.3035 26.3869 45.3035Z" fill="#90E07C"/>
<path d="M37.0268 45.3819C36.9397 45.3819 36.9718 45.4234 36.958 45.4326C37.1094 45.4141 37.0222 45.3727 37.0268 45.3819Z" fill="#90E07C"/>
<path d="M38.1367 44.6259C38.1597 44.5614 38.1734 44.4922 38.1918 44.4277C38.178 44.483 38.1597 44.5429 38.1367 44.5982V44.6259Z" fill="#90E07C"/>
<path d="M38.3157 43.7547C38.3065 43.621 38.3019 43.4965 38.3157 43.4136C38.279 43.4689 38.2836 43.5703 38.2928 43.6855C38.3019 43.8008 38.3203 43.9206 38.2928 44.0405C38.2882 44.0543 38.279 44.0635 38.2744 44.0773C38.2882 44.1142 38.3019 44.1511 38.3157 44.188C38.3157 44.1511 38.3249 44.1142 38.3294 44.0773C38.3294 44.0405 38.3294 44.0036 38.3294 43.9621C38.3294 43.8837 38.3203 43.8238 38.3157 43.7547Z" fill="#90E07C"/>
<path d="M38.4723 42.8051C38.4447 42.842 38.4493 42.6714 38.4631 42.948C38.4631 42.9342 38.4677 42.9296 38.4723 42.9203C38.4723 42.8973 38.4723 42.8604 38.4723 42.8051Z" fill="#90E07C"/>
<path d="M38.4678 42.9203C38.4907 42.842 38.4678 43.0402 38.4678 42.9203Z" fill="#90E07C"/>
<path d="M38.4541 42.3672L38.477 42.524C38.4954 42.4917 38.4954 42.3488 38.5091 42.4041C38.4954 42.2428 38.477 42.275 38.4541 42.3672Z" fill="#90E07C"/>
<path d="M38.3984 42.2151L38.4076 42.2981C38.4076 42.2981 38.4168 42.2612 38.3984 42.2151Z" fill="#90E07C"/>
<path d="M38.4215 42.3764C38.4215 42.3764 38.4215 42.3949 38.4353 42.4686L38.4123 42.2935C38.4123 42.2935 38.3756 42.3165 38.4215 42.3718V42.3764Z" fill="#90E07C"/>
<path d="M38.3711 42.6115C38.3803 42.9158 38.4307 42.8697 38.4215 42.5654C38.4078 42.653 38.394 42.7682 38.3711 42.6115Z" fill="#90E07C"/>
<path d="M38.2427 43.3537L38.2197 43.4735L38.2427 43.5749C38.2289 43.5242 38.261 43.3445 38.2427 43.3537Z" fill="#90E07C"/>
<path d="M38.4903 41.3808C38.4903 41.3808 38.449 41.4361 38.4307 41.4453L38.449 41.5606C38.4582 41.5006 38.4674 41.3854 38.4903 41.3808Z" fill="#90E07C"/>
<path d="M38.4308 41.4453L38.4033 41.2701C38.4033 41.4269 38.4125 41.4545 38.4308 41.4453Z" fill="#90E07C"/>
<path d="M38.3203 42.1875L38.3754 42.4732L38.3203 42.1321V42.1875Z" fill="#90E07C"/>
<path d="M38.4903 40.7124L38.527 40.8138L38.4766 40.634L38.4903 40.7124Z" fill="#90E07C"/>
<path d="M38.4991 39.9333C38.5129 40.0302 38.5083 40.1362 38.4854 40.2699C38.5129 40.3436 38.5358 40.1684 38.5542 40.2468C38.5496 40.127 38.522 40.0255 38.4991 39.9333Z" fill="#90E07C"/>
<path d="M38.4999 39.9333C38.4953 39.8826 38.4815 39.8319 38.4678 39.7766C38.4769 39.8273 38.4861 39.878 38.4999 39.9333Z" fill="#90E07C"/>
<path d="M38.4534 40.8369L38.4121 40.906C38.4121 40.906 38.4121 40.9521 38.4121 40.9751C38.4213 40.9613 38.4442 40.9337 38.458 40.8369H38.4534Z" fill="#90E07C"/>
<path d="M38.4122 40.989C38.4122 40.989 38.4122 40.9797 38.4122 40.9705C38.4122 40.9751 38.4076 40.9797 38.4122 40.989Z" fill="#90E07C"/>
<path d="M38.3616 41.7265C38.3386 41.6251 38.3111 41.4084 38.2744 41.6159C38.3019 41.6896 38.3249 41.5698 38.3616 41.7265Z" fill="#90E07C"/>
<path d="M38.3889 41.2747L38.3568 41.0765L38.3477 41.2609C38.3477 41.2609 38.3752 41.224 38.3889 41.2747Z" fill="#90E07C"/>
<path d="M38.3438 40.9843L38.3575 41.0765L38.3621 41.0074L38.3438 40.9843Z" fill="#90E07C"/>
<path d="M38.4263 40.0947C38.408 40.0163 38.408 39.9287 38.4034 39.8273C38.3942 39.9334 38.3896 40.044 38.3896 40.1454C38.4034 40.1592 38.4263 40.2053 38.4263 40.0901V40.0947Z" fill="#90E07C"/>
<path d="M38.4171 40.4865C38.4171 40.4865 38.4171 40.4727 38.4171 40.4681C38.4171 40.4773 38.4125 40.4865 38.4171 40.4865Z" fill="#90E07C"/>
<path d="M38.4027 38.8501C38.4027 38.8501 38.3981 38.8594 38.3936 38.864C38.3936 38.864 38.3981 38.864 38.4027 38.864V38.8455V38.8501Z" fill="#90E07C"/>
<path d="M38.3845 40.1639C38.3753 40.2422 38.3845 40.2929 38.3982 40.339C38.3982 40.2791 38.3891 40.2146 38.3891 40.15C38.3845 40.1454 38.3799 40.1408 38.3799 40.1685L38.3845 40.1639Z" fill="#90E07C"/>
<path d="M38.4487 39.5047C38.4395 39.5462 38.4304 39.5923 38.4258 39.643C38.4395 39.6015 38.4625 39.5185 38.4487 39.5047Z" fill="#90E07C"/>
<path d="M38.4258 40.445C38.4258 40.445 38.4258 40.4542 38.4258 40.4588C38.435 40.4312 38.4304 40.4358 38.4258 40.445Z" fill="#90E07C"/>
<path d="M38.426 40.445C38.4214 40.4035 38.4076 40.3713 38.3984 40.339C38.3984 40.3897 38.4076 40.4312 38.4122 40.4727C38.4122 40.4634 38.4214 40.4542 38.426 40.445Z" fill="#90E07C"/>
<path d="M38.3936 39.2189V39.2926C38.4073 39.205 38.4211 39.1451 38.4532 39.0299C38.4348 38.9054 38.4211 38.8777 38.4073 38.8685V39.2419L38.3936 39.2142V39.2189Z" fill="#90E07C"/>
<path d="M38.3982 39.6291C38.3569 39.5692 38.334 39.3894 38.2881 39.5001C38.2881 39.7213 38.3248 39.6568 38.3431 39.7859C38.3339 39.4263 38.3661 39.8873 38.3936 39.6291C38.4027 39.6983 38.4027 39.7628 38.4073 39.8227C38.4119 39.7582 38.4211 39.6983 38.4257 39.6384C38.4257 39.6384 38.4257 39.643 38.4257 39.6476C38.4211 39.6614 38.4165 39.666 38.4211 39.6476C38.4211 39.6476 38.4211 39.643 38.4211 39.6384C38.4165 39.6384 38.4119 39.6291 38.4027 39.6199C38.4119 39.5185 38.4119 39.6015 38.4211 39.6384C38.4211 39.6384 38.4211 39.6384 38.4257 39.6384L38.4027 39.2788C38.3982 39.3526 38.3982 39.4494 38.4027 39.6199L38.3982 39.6291Z" fill="#90E07C"/>
<path d="M38.1787 41.4269L38.1879 41.4177C38.1833 41.3946 38.1787 41.3854 38.1787 41.4269Z" fill="#90E07C"/>
<path d="M38.3027 41.118C38.3027 41.118 38.3073 41.1088 38.3119 41.1088C38.3119 41.1042 38.3073 41.1088 38.3027 41.118Z" fill="#90E07C"/>
<path d="M38.2425 41.4361V41.4131C38.2471 41.2978 38.2838 41.1595 38.3022 41.118C38.2701 41.1549 38.2425 41.1964 38.2058 41.284C38.2104 41.3116 38.2288 41.3301 38.2242 41.4177C38.2104 41.4914 38.2013 41.4177 38.1875 41.4177C38.2013 41.4684 38.2196 41.5974 38.238 41.4361H38.2425Z" fill="#90E07C"/>
<path d="M38.293 40.445L38.2701 40.1454L38.2334 40.2975L38.2563 40.2883C38.2472 40.4588 38.2747 40.422 38.293 40.4404V40.445Z" fill="#90E07C"/>
<path d="M38.4266 38.8178L38.4724 38.8547L38.4082 38.6841L38.4266 38.8178Z" fill="#90E07C"/>
<path d="M38.4219 38.4307L38.4632 38.4445L38.4356 38.3431L38.4219 38.4307Z" fill="#90E07C"/>
<path d="M34.7431 31.5762C34.6147 31.5393 34.4725 31.4794 34.4909 31.5255L34.5321 31.5716C34.6193 31.5624 34.6881 31.5716 34.7477 31.5762H34.7431Z" fill="#90E07C"/>
<path d="M38.4033 34.4618C38.4216 34.3512 38.4262 34.2636 38.4308 34.1852C38.4079 34.3189 38.3666 34.4249 38.4033 34.4618Z" fill="#90E07C"/>
<path d="M25.2539 35.144C25.2631 35.1993 25.2722 35.2224 25.2814 35.2178C25.2722 35.1624 25.2677 35.1302 25.2539 35.144Z" fill="#90E07C"/>
<path d="M38.4311 34.1852C38.4494 34.0884 38.4632 33.9732 38.4311 33.8672C38.4311 33.8856 38.4265 33.9041 38.4219 33.9271C38.431 34.0055 38.4356 34.0884 38.4311 34.1852Z" fill="#90E07C"/>
<path d="M38.4395 36.8726C38.444 36.8864 38.4395 36.9556 38.4395 36.8726Z" fill="#90E07C"/>
<path d="M38.2471 37.2368C38.2471 37.2368 38.2654 37.2552 38.27 37.269C38.2654 37.2506 38.2608 37.2368 38.2471 37.2368Z" fill="#90E07C"/>
<path d="M38.4219 36.9924C38.4265 36.9602 38.431 36.9279 38.4356 36.8864C38.4356 36.9049 38.4265 36.9371 38.4219 36.9924Z" fill="#90E07C"/>
<path d="M38.4395 36.9786C38.4395 37.0063 38.4395 37.0293 38.4395 37.0524C38.4486 37.0616 38.4532 37.0524 38.4395 36.9786Z" fill="#90E07C"/>
<path d="M38.4395 36.8726C38.4395 36.8496 38.4395 36.8127 38.4395 36.7574C38.4395 36.8035 38.4395 36.8496 38.4395 36.8911C38.4395 36.8726 38.444 36.868 38.4486 36.8726H38.4395Z" fill="#90E07C"/>
<path d="M38.4493 37.5456C38.4493 37.6332 38.4401 37.6608 38.4355 37.7069C38.4447 37.7069 38.4585 37.6793 38.4631 37.7069L38.4539 37.5456H38.4493Z" fill="#90E07C"/>
<path d="M38.3025 37.8867C38.2613 37.9005 38.275 38.0111 38.2842 38.1356C38.2842 38.1264 38.2842 38.1218 38.2842 38.1126C38.3392 38.1494 38.3209 38.0158 38.3025 37.8821V37.8867Z" fill="#90E07C"/>
<path d="M38.2842 38.1679C38.2842 38.2048 38.2842 38.2463 38.2842 38.2831C38.3071 38.297 38.2888 38.2371 38.2842 38.1679Z" fill="#90E07C"/>
<path d="M38.4076 36.6006C38.3985 36.6606 38.4581 36.6375 38.4443 36.6698C38.4948 36.7343 38.3801 36.2734 38.4076 36.6006Z" fill="#90E07C"/>
<path d="M38.165 37.9881L38.2155 37.942L38.1742 37.8729L38.165 37.9881Z" fill="#90E07C"/>
<path d="M38.2013 37.0017L38.1875 37.1999C38.1875 37.1999 38.2013 37.223 38.2058 37.2552C38.2058 37.1308 38.2196 36.9971 38.2058 37.0017H38.2013Z" fill="#90E07C"/>
<path d="M38.2152 37.4165C38.2152 37.3796 38.2152 37.3059 38.2061 37.2552C38.2061 37.3197 38.2061 37.3796 38.2152 37.4165Z" fill="#90E07C"/>
<path d="M38.1782 34.7614C38.192 34.8121 38.1966 34.8951 38.2149 34.8628L38.2012 34.6462C38.2012 34.6462 38.1737 34.6831 38.1782 34.766V34.7614Z" fill="#90E07C"/>
<path d="M36.5 45.3865L36.6651 45.4049L36.5596 45.3727L36.5 45.3865Z" fill="#90E07C"/>
<path d="M36.8164 45.3081L36.8531 45.3726L36.954 45.3127C36.9173 45.3127 36.8439 45.3219 36.8164 45.3081Z" fill="#90E07C"/>
<path d="M20.5758 39.3203C20.5758 39.3203 20.5758 39.3388 20.5758 39.348L20.5987 39.3388C20.5987 39.242 20.585 39.1728 20.5758 39.2281V38.97C20.6125 39.1267 20.7363 39.0161 20.8051 38.864C20.7868 38.8594 20.773 38.8594 20.7501 38.675C20.7272 38.7395 20.6996 39.0806 20.6629 38.9285C20.6446 38.6842 20.6767 38.7303 20.6996 38.6104C20.6538 38.698 20.6308 38.3892 20.5758 38.3523V36.8773C20.5758 36.8773 20.5896 36.8865 20.5941 36.868L20.585 36.7297C20.6308 36.6053 20.6446 36.9879 20.6675 36.8127C20.6996 36.9971 20.7455 37.2045 20.7226 37.4627L20.6629 37.5134C20.6629 37.5134 20.6996 37.3428 20.6813 37.2737C20.7088 37.3797 20.5987 37.6701 20.6813 37.7899L20.7226 37.6102C20.7547 37.7946 20.8189 38.0204 20.8005 38.2509C20.8602 38.1449 20.7914 38.2002 20.8647 38.0342C20.7776 38.1771 20.8647 37.4488 20.773 37.6747C20.8556 37.5088 20.8097 37.3843 20.8785 37.1677C20.8602 37.1723 20.8418 37.246 20.851 37.0524C20.8464 37.0432 20.8372 37.0248 20.8326 37.0109C20.8326 37.0063 20.8326 37.0017 20.8326 36.9971C20.8326 36.9971 20.8326 37.0017 20.8326 37.0063C20.8326 36.9971 20.8326 36.9971 20.8326 37.0063C20.8235 37.0524 20.8143 37.0893 20.8005 37.1031C20.7547 37.0063 20.7547 36.7021 20.7317 36.5961C20.7409 36.4808 20.7547 36.6422 20.7776 36.5822L20.7409 36.4255C20.7868 36.4117 20.8143 36.1213 20.8418 36.3932V36.1489C20.8693 36.006 20.8785 35.8124 20.8602 35.688C20.8693 35.5727 20.8097 35.3976 20.8464 35.499L20.8189 35.121H20.8281C20.8326 34.743 20.7547 34.3466 20.8326 33.9179C20.8235 33.7934 20.8051 33.6598 20.8189 33.4523L20.8602 33.4109C20.8556 33.3279 20.8602 33.208 20.8693 33.0974C20.8693 33.0467 20.8693 32.9776 20.8693 32.9268C20.8693 32.8715 20.851 32.8347 20.8418 32.8116C20.8831 32.6964 20.8281 32.4382 20.6767 32.217C20.5345 31.9865 20.3006 31.8159 20.1539 31.7191L20.1172 31.756C19.9154 31.6316 19.6769 31.5716 19.3879 31.5809L19.4063 31.627C19.1861 31.6592 18.8651 31.5947 18.5349 31.5993C18.5578 31.5809 18.6404 31.5855 18.7 31.5993C18.3055 31.4979 17.8698 31.673 17.5121 31.5993C17.425 31.6177 17.3562 31.6085 17.2965 31.5993C17.3057 31.5993 17.3103 31.5993 17.3195 31.5993C17.3103 31.5993 17.2965 31.5993 17.2828 31.5993C17.2415 31.5901 17.2048 31.5809 17.159 31.5762C17.1956 31.5855 17.2323 31.5947 17.2644 31.5993C17.1957 31.5993 17.0902 31.6039 16.9893 31.6177L16.948 31.567C16.948 31.567 16.9342 31.567 16.9251 31.567C16.8242 31.5486 16.8425 31.5901 16.8975 31.627C16.8471 31.6362 16.8012 31.6454 16.7645 31.6546C16.682 31.5762 16.4985 31.6823 16.3839 31.5993C16.3196 31.6362 15.9344 31.6316 15.8335 31.7007C15.7188 31.6915 15.6088 31.6823 15.5079 31.7053L15.4574 31.6454L15.2097 31.7284C15.0584 31.6915 14.9942 31.6684 15.1455 31.6223C14.7832 31.6961 14.852 31.65 14.5447 31.7238L14.5585 31.6823C14.4484 31.6823 14.2741 31.7376 14.2053 31.7053C13.9577 31.6269 12.9854 31.6961 12.3524 31.6223C12.4763 31.7422 12.0589 31.5716 12.0314 31.6592C11.9947 31.6316 11.9076 31.6177 12.0085 31.5901C11.6874 31.6177 11.5223 31.544 11.3022 31.6223C11.2655 31.5947 11.371 31.5809 11.3388 31.567C11.3113 31.5716 11.238 31.5901 11.2013 31.5762C11.1692 31.5578 11.2471 31.5532 11.2976 31.5394C10.9674 31.544 10.9353 31.6316 10.9123 31.7099C10.7472 31.673 10.6601 31.6777 10.5408 31.7284C10.4812 31.7007 10.3849 31.673 10.5913 31.6638C10.4766 31.6638 9.88956 31.627 9.8758 31.6915C9.83911 31.673 9.71528 31.6869 9.68318 31.6915C9.42634 31.6915 9.4034 31.6823 9.14656 31.6915L9.21536 31.7007C9.16491 31.7422 9.11446 31.7422 9.04108 31.7422C8.97228 31.7422 8.88514 31.7376 8.77507 31.7698V31.7606C8.71545 31.7698 8.665 31.7837 8.62372 31.7929C8.58244 31.8021 8.55034 31.8159 8.52741 31.8298C8.47696 31.8528 8.45403 31.8666 8.43568 31.8851C8.3944 31.922 8.33937 31.9358 8.13298 32.0925C8.15133 32.0925 8.16967 32.1017 8.18801 32.1063C8.20636 32.1617 8.1238 32.2216 8.0229 32.3276C7.92659 32.429 7.8211 32.5811 7.80734 32.7332C7.82569 32.701 7.83945 32.6687 7.86239 32.6411C7.8578 32.6825 7.84404 32.724 7.8211 32.7747C7.80276 32.8208 7.77066 32.8761 7.74773 32.9315C7.69728 33.0513 7.656 33.1481 7.64683 33.2265C7.63765 33.2587 7.63307 33.1758 7.62389 33.1297C7.56427 33.5169 7.6881 33.1804 7.70186 33.4708C7.66976 33.5261 7.61472 33.4016 7.61013 33.5952C7.58262 33.692 7.7202 34.1576 7.65599 34.425C7.68351 34.365 7.70645 34.3097 7.72938 34.4434C7.73855 34.6508 7.62848 35.0012 7.71103 35.1855C7.70186 35.2132 7.69727 35.2224 7.69269 35.2224C7.71562 35.3791 7.72938 35.7341 7.77524 35.8263C7.61013 35.9738 7.8578 36.8035 7.70186 36.7989L7.71103 37.2829L7.69728 37.2691C7.6881 37.5779 7.72479 37.6885 7.76149 37.7946C7.75231 37.8683 7.73855 37.813 7.72938 37.8084C7.69727 38.2601 7.70645 38.3062 7.77983 38.6842L7.72938 38.7257C7.7569 38.8271 7.65141 39.3802 7.71103 39.8228C7.70645 39.8228 7.69727 39.8089 7.6881 39.7721C7.74772 40.2699 7.55051 40.9659 7.72938 41.1503L7.77524 41.4776C7.789 41.0535 7.85321 41.5421 7.88531 41.367C7.89448 41.5329 7.83028 41.8003 7.8211 41.5928L7.83028 41.5606C7.73396 41.4868 7.79818 42.0907 7.73397 42.0768C7.73397 42.4963 7.72479 42.9112 7.71103 43.3168C7.70645 43.5196 7.69727 43.7225 7.69269 43.9207C7.69269 44.1558 7.74314 44.3908 7.85321 44.5937C7.8578 44.5522 7.86697 44.5061 7.87614 44.4692C7.91742 44.5614 7.96787 44.6536 8.0275 44.732C8.06419 44.8057 8.04584 44.861 7.91742 44.672C7.92201 44.7043 7.94494 44.7366 7.96787 44.7688C7.99539 44.8011 8.02749 44.8334 8.0596 44.8564C8.12381 44.9071 8.18802 44.9302 8.19719 44.9302C8.35313 45.0777 8.31185 45.0685 8.23388 45.0316C8.1605 44.9947 8.0596 44.9209 8.11005 44.967C8.15591 45.0085 8.20636 45.05 8.25681 45.0823L8.22929 45.05C8.29809 45.0869 8.33936 45.0961 8.3944 45.1145C8.42192 45.1238 8.44944 45.1376 8.48613 45.1514C8.52282 45.1653 8.56868 45.1883 8.63289 45.2113C8.71086 45.2482 8.72921 45.2621 8.73379 45.2759C8.73838 45.2897 8.7338 45.2943 8.7659 45.3035C8.7659 45.3035 8.78424 45.322 8.8668 45.3266C8.931 45.3404 8.9998 45.345 9.0686 45.3496C9.13739 45.3496 9.18784 45.3496 9.24746 45.3542L9.10988 45.2943C9.26123 45.2667 9.43092 45.2943 9.27498 45.2298C9.50889 45.3312 10.5546 45.2667 10.6968 45.2989C10.9077 45.2574 11.1187 45.2574 11.3801 45.2621C11.3159 45.2482 11.2746 45.1837 11.4994 45.1929C11.4168 45.3266 11.9122 45.2528 12.091 45.3496C11.9305 45.2851 12.7285 45.3358 12.4763 45.2436C12.6643 45.2528 12.4854 45.2943 12.6276 45.3266C13.0725 45.2759 13.6091 45.3589 14.1641 45.345C14.1732 45.3266 14.0815 45.2989 14.2007 45.2713L14.4897 45.3589C14.5998 45.3496 14.5906 45.2574 14.7878 45.3174C14.7603 45.3035 14.719 45.2805 14.7878 45.2759C15.8702 45.3635 16.9938 45.2067 18.0946 45.3681C17.9478 45.3358 18.0441 45.3312 18.1588 45.3266C18.0854 45.3174 18.1588 45.2805 18.145 45.2574L18.6037 45.3266C18.6862 45.2574 19.0944 45.3266 19.1449 45.2574L18.9981 45.2713C19.1036 45.2298 19.0119 45.1837 18.911 45.133H19.365C20.03 45.133 20.5758 44.5844 20.5758 43.9161V39.3157V39.3203ZM20.5758 38.9423V38.6289C20.5942 38.7072 20.5987 38.8271 20.5758 38.9423ZM20.8097 35.9692C20.8097 35.9692 20.8097 35.9692 20.8097 35.9646C20.8281 35.8309 20.8235 35.877 20.8097 35.9692ZM20.6996 34.8306C20.7226 35.1302 20.6446 34.9597 20.6584 35.0104C20.6446 35.5727 20.8051 35.4898 20.7455 35.9553C20.6905 36.1397 20.6354 35.9646 20.5987 36.006C20.5804 35.7617 20.6354 35.6327 20.6308 35.4667L20.6033 35.6695C20.585 35.5912 20.5712 35.4298 20.5896 35.3423C20.585 35.3607 20.5804 35.3884 20.5758 35.4252V34.2728C20.6308 34.3835 20.6767 34.5863 20.6996 34.8306ZM20.5712 33.0375C20.5712 32.9591 20.562 32.8808 20.5483 32.8024C20.5804 32.8623 20.6079 32.9315 20.6125 32.996C20.5987 32.9868 20.5804 33.0144 20.5712 33.0375ZM19.631 31.7238C19.631 31.7238 19.764 31.7745 19.8695 31.8436C19.9796 31.9174 20.0759 32.0095 20.0988 32.0602C20.108 32.0787 20.1126 32.0879 20.108 32.0971C20.03 32.0372 19.9475 31.9865 19.8603 31.945L19.8879 31.8713C19.8879 31.8713 19.8466 31.9081 19.8236 31.9266C19.7365 31.8897 19.6448 31.862 19.5485 31.8482C19.5576 31.7883 19.5806 31.7376 19.6264 31.7238H19.631ZM18.1359 31.6869L18.2001 31.7191L18.4661 31.6823C18.3973 31.7191 18.2734 31.7745 18.1359 31.8298H17.7002C17.8286 31.7652 17.9799 31.7053 18.1404 31.6869H18.1359ZM15.8197 31.7053C15.8197 31.7053 15.806 31.7145 15.8014 31.7238C15.8014 31.7145 15.7693 31.7053 15.8197 31.7053ZM15.1685 31.7422C15.1685 31.7422 15.1593 31.7975 15.1685 31.8344H14.9667L15.1685 31.7422ZM10.8344 31.756C10.8756 31.7652 10.8389 31.7883 10.7885 31.8159C10.8114 31.8113 10.8298 31.8067 10.8481 31.8021C10.894 31.8113 10.9123 31.8252 10.9123 31.8344H10.7518C10.7518 31.8344 10.7793 31.8206 10.7885 31.8159C10.7656 31.8206 10.738 31.8298 10.7105 31.8344H10.6371C10.5821 31.8159 10.5408 31.7975 10.5087 31.7929L10.8389 31.756H10.8344ZM8.798 45.3035L8.73838 45.2759C8.80717 45.2897 8.83011 45.2897 8.83469 45.2943C8.83469 45.2943 8.81635 45.3035 8.798 45.3035Z" fill="#FFBAC6"/>
<path d="M19.434 45.3819C19.3469 45.3819 19.379 45.4234 19.3652 45.4326C19.5166 45.4141 19.4294 45.3727 19.434 45.3819Z" fill="#FFBAC6"/>
<path d="M20.5479 44.6259C20.5708 44.5614 20.5846 44.4922 20.6029 44.4277C20.5891 44.483 20.5708 44.5429 20.5479 44.5982V44.6259Z" fill="#FFBAC6"/>
<path d="M20.7268 43.7547C20.7176 43.621 20.7131 43.4965 20.7268 43.4136C20.6901 43.4689 20.6947 43.5703 20.7039 43.6855C20.7131 43.8008 20.7314 43.9206 20.7039 44.0405C20.6993 44.0543 20.6901 44.0635 20.6855 44.0773C20.6993 44.1142 20.7131 44.1511 20.7268 44.188C20.7268 44.1511 20.736 44.1142 20.7406 44.0773C20.7406 44.0405 20.7406 44.0036 20.7406 43.9621C20.7406 43.8837 20.7314 43.8238 20.7268 43.7547Z" fill="#FFBAC6"/>
<path d="M20.8834 42.8051C20.8559 42.842 20.8605 42.6714 20.8742 42.948C20.8742 42.9342 20.8788 42.9296 20.8834 42.9203C20.8834 42.8973 20.8834 42.8604 20.8834 42.8051Z" fill="#FFBAC6"/>
<path d="M20.8789 42.9203C20.9018 42.842 20.8789 43.0402 20.8789 42.9203Z" fill="#FFBAC6"/>
<path d="M20.8643 42.3672L20.8872 42.524C20.9055 42.4917 20.9055 42.3488 20.9193 42.4041C20.9055 42.2428 20.8872 42.275 20.8643 42.3672Z" fill="#FFBAC6"/>
<path d="M20.8096 42.2151L20.8187 42.2981C20.8187 42.2981 20.8279 42.2612 20.8096 42.2151Z" fill="#FFBAC6"/>
<path d="M20.8278 42.3764C20.8278 42.3764 20.8277 42.3949 20.8415 42.4686L20.8186 42.2935C20.8186 42.2935 20.7819 42.3165 20.8278 42.3718V42.3764Z" fill="#FFBAC6"/>
<path d="M20.7822 42.6115C20.7914 42.9158 20.8418 42.8697 20.8327 42.5654C20.8189 42.653 20.8052 42.7682 20.7822 42.6115Z" fill="#FFBAC6"/>
<path d="M20.6489 43.3537L20.626 43.4735L20.6489 43.5749C20.6351 43.5242 20.6673 43.3445 20.6489 43.3537Z" fill="#FFBAC6"/>
<path d="M20.9014 41.3808C20.9014 41.3808 20.8601 41.4361 20.8418 41.4453L20.8601 41.5606C20.8693 41.5006 20.8785 41.3854 20.9014 41.3808Z" fill="#FFBAC6"/>
<path d="M20.842 41.4453L20.8145 41.2701C20.8145 41.4269 20.8236 41.4545 20.842 41.4453Z" fill="#FFBAC6"/>
<path d="M20.7314 42.1875L20.7865 42.4732L20.7314 42.1321V42.1875Z" fill="#FFBAC6"/>
<path d="M20.9012 40.7124L20.9379 40.8138L20.8828 40.634L20.9012 40.7124Z" fill="#FFBAC6"/>
<path d="M20.9102 39.9333C20.924 40.0302 20.9194 40.1362 20.8965 40.2699C20.924 40.3436 20.9469 40.1684 20.9653 40.2468C20.9607 40.127 20.9332 40.0255 20.9102 39.9333Z" fill="#FFBAC6"/>
<path d="M20.911 39.9333C20.9064 39.8826 20.8927 39.8319 20.8789 39.7766C20.8881 39.8273 20.8973 39.878 20.911 39.9333Z" fill="#FFBAC6"/>
<path d="M20.8645 40.8369L20.8232 40.906C20.8232 40.906 20.8232 40.9521 20.8232 40.9751C20.8324 40.9613 20.8554 40.9337 20.8691 40.8369H20.8645Z" fill="#FFBAC6"/>
<path d="M20.8233 40.989C20.8233 40.989 20.8233 40.9797 20.8233 40.9705C20.8233 40.9751 20.8187 40.9797 20.8233 40.989Z" fill="#FFBAC6"/>
<path d="M20.7688 41.7265C20.7459 41.6251 20.7183 41.4084 20.6816 41.6159C20.7092 41.6896 20.7321 41.5698 20.7688 41.7265Z" fill="#FFBAC6"/>
<path d="M20.7962 41.2747L20.7641 41.0765L20.7549 41.2609C20.7549 41.2609 20.7824 41.224 20.7962 41.2747Z" fill="#FFBAC6"/>
<path d="M20.7549 40.9843L20.7686 41.0765L20.7732 41.0074L20.7549 40.9843Z" fill="#FFBAC6"/>
<path d="M20.8375 40.0947C20.8191 40.0163 20.8191 39.9287 20.8145 39.8273C20.8054 39.9334 20.8008 40.044 20.8008 40.1454C20.8145 40.1592 20.8375 40.2053 20.8375 40.0901V40.0947Z" fill="#FFBAC6"/>
<path d="M20.8233 40.4865C20.8233 40.4865 20.8233 40.4727 20.8233 40.4681C20.8233 40.4773 20.8187 40.4865 20.8233 40.4865Z" fill="#FFBAC6"/>
<path d="M20.8139 38.8501C20.8139 38.8501 20.8093 38.8594 20.8047 38.864C20.8047 38.864 20.8093 38.864 20.8139 38.864V38.8455V38.8501Z" fill="#FFBAC6"/>
<path d="M20.7917 40.1639C20.7825 40.2422 20.7917 40.2929 20.8055 40.339C20.8055 40.2791 20.7963 40.2146 20.7963 40.15C20.7917 40.1454 20.7871 40.1408 20.7871 40.1685L20.7917 40.1639Z" fill="#FFBAC6"/>
<path d="M20.8559 39.5047C20.8468 39.5462 20.8376 39.5923 20.833 39.643C20.8468 39.6015 20.8697 39.5185 20.8559 39.5047Z" fill="#FFBAC6"/>
<path d="M20.8369 40.445C20.8369 40.445 20.8369 40.4542 20.8369 40.4588C20.8461 40.4312 20.8415 40.4358 20.8369 40.445Z" fill="#FFBAC6"/>
<path d="M20.8371 40.445C20.8325 40.4035 20.8187 40.3713 20.8096 40.339C20.8096 40.3897 20.8187 40.4312 20.8233 40.4727C20.8233 40.4634 20.8325 40.4542 20.8371 40.445Z" fill="#FFBAC6"/>
<path d="M20.8008 39.2189V39.2926C20.8145 39.205 20.8283 39.1451 20.8604 39.0299C20.8421 38.9054 20.8283 38.8777 20.8145 38.8685V39.2419L20.8008 39.2142V39.2189Z" fill="#FFBAC6"/>
<path d="M20.8093 39.6291C20.768 39.5692 20.7451 39.3894 20.6992 39.5001C20.6992 39.7213 20.7359 39.6568 20.7543 39.7859C20.7451 39.4263 20.7772 39.8873 20.8047 39.6291C20.8139 39.6983 20.8139 39.7628 20.8185 39.8227C20.8231 39.7582 20.8322 39.6983 20.8368 39.6384C20.8368 39.6384 20.8368 39.643 20.8368 39.6476C20.8322 39.6614 20.8276 39.666 20.8322 39.6476C20.8322 39.6476 20.8322 39.643 20.8322 39.6384C20.8276 39.6384 20.8231 39.6291 20.8139 39.6199C20.8231 39.5185 20.8231 39.6015 20.8322 39.6384C20.8322 39.6384 20.8322 39.6384 20.8368 39.6384L20.8139 39.2788C20.8093 39.3526 20.8093 39.4494 20.8139 39.6199L20.8093 39.6291Z" fill="#FFBAC6"/>
<path d="M20.5898 41.4269L20.599 41.4177C20.5944 41.3946 20.5898 41.3854 20.5898 41.4269Z" fill="#FFBAC6"/>
<path d="M20.7139 41.118C20.7139 41.118 20.7185 41.1088 20.723 41.1088C20.723 41.1042 20.7185 41.1088 20.7139 41.118Z" fill="#FFBAC6"/>
<path d="M20.6537 41.4361V41.4131C20.6583 41.2978 20.6949 41.1595 20.7133 41.118C20.6812 41.1549 20.6537 41.1964 20.617 41.284C20.6216 41.3116 20.6399 41.3301 20.6353 41.4177C20.6216 41.4914 20.6124 41.4177 20.5986 41.4177C20.6124 41.4684 20.6307 41.5974 20.6491 41.4361H20.6537Z" fill="#FFBAC6"/>
<path d="M20.6993 40.445L20.6763 40.1454L20.6396 40.2975L20.6626 40.2883C20.6534 40.4588 20.6809 40.422 20.6993 40.4404V40.445Z" fill="#FFBAC6"/>
<path d="M20.8377 38.8178L20.8835 38.8547L20.8193 38.6841L20.8377 38.8178Z" fill="#FFBAC6"/>
<path d="M20.833 38.4307L20.8697 38.4445L20.8468 38.3431L20.833 38.4307Z" fill="#FFBAC6"/>
<path d="M17.1494 31.5762C17.0209 31.5393 16.8788 31.4794 16.8971 31.5255L16.9384 31.5716C17.0255 31.5624 17.0943 31.5716 17.154 31.5762H17.1494Z" fill="#FFBAC6"/>
<path d="M20.8144 34.4618C20.8328 34.3512 20.8373 34.2636 20.8419 34.1852C20.819 34.3189 20.7777 34.4249 20.8144 34.4618Z" fill="#FFBAC6"/>
<path d="M7.66504 35.144C7.67421 35.1993 7.68338 35.2224 7.69256 35.2178C7.68338 35.1624 7.6788 35.1302 7.66504 35.144Z" fill="#FFBAC6"/>
<path d="M20.8422 34.1852C20.8605 34.0884 20.8743 33.9732 20.8422 33.8672C20.8422 33.8856 20.8376 33.9041 20.833 33.9271C20.8422 34.0055 20.8468 34.0884 20.8422 34.1852Z" fill="#FFBAC6"/>
<path d="M20.8506 36.8726C20.8552 36.8864 20.8506 36.9556 20.8506 36.8726Z" fill="#FFBAC6"/>
<path d="M20.6533 37.2368C20.6533 37.2368 20.6717 37.2552 20.6762 37.269C20.6717 37.2506 20.6671 37.2368 20.6533 37.2368Z" fill="#FFBAC6"/>
<path d="M20.8281 36.9924C20.8327 36.9602 20.8373 36.9279 20.8419 36.8864C20.8419 36.9049 20.8327 36.9371 20.8281 36.9924Z" fill="#FFBAC6"/>
<path d="M20.8506 36.9786C20.8506 37.0063 20.8506 37.0293 20.8506 37.0524C20.8598 37.0616 20.8643 37.0524 20.8506 36.9786Z" fill="#FFBAC6"/>
<path d="M20.8506 36.8726C20.8506 36.8496 20.8506 36.8127 20.8506 36.7574C20.8506 36.8035 20.8506 36.8496 20.8506 36.8911C20.8506 36.8726 20.8552 36.868 20.8598 36.8726H20.8506Z" fill="#FFBAC6"/>
<path d="M20.8604 37.5456C20.8604 37.6332 20.8513 37.6608 20.8467 37.7069C20.8559 37.7069 20.8696 37.6793 20.8742 37.7069L20.865 37.5456H20.8604Z" fill="#FFBAC6"/>
<path d="M20.7088 37.8867C20.6675 37.9005 20.6813 38.0111 20.6905 38.1356C20.6905 38.1264 20.6905 38.1218 20.6905 38.1126C20.7455 38.1494 20.7271 38.0158 20.7088 37.8821V37.8867Z" fill="#FFBAC6"/>
<path d="M20.6904 38.1679C20.6904 38.2048 20.6904 38.2463 20.6904 38.2831C20.7133 38.297 20.695 38.2371 20.6904 38.1679Z" fill="#FFBAC6"/>
<path d="M20.8139 36.6006C20.8047 36.6606 20.8644 36.6375 20.8506 36.6698C20.901 36.7343 20.7864 36.2734 20.8139 36.6006Z" fill="#FFBAC6"/>
<path d="M20.5762 37.9881L20.6266 37.942L20.5853 37.8729L20.5762 37.9881Z" fill="#FFBAC6"/>
<path d="M20.6124 37.0017L20.5986 37.1999C20.5986 37.1999 20.6124 37.223 20.617 37.2552C20.617 37.1308 20.6307 36.9971 20.617 37.0017H20.6124Z" fill="#FFBAC6"/>
<path d="M20.6215 37.4165C20.6215 37.3796 20.6215 37.3059 20.6123 37.2552C20.6123 37.3197 20.6123 37.3796 20.6215 37.4165Z" fill="#FFBAC6"/>
<path d="M20.5845 34.7614C20.5983 34.8121 20.6028 34.8951 20.6212 34.8628L20.6074 34.6462C20.6074 34.6462 20.5799 34.6831 20.5845 34.766V34.7614Z" fill="#FFBAC6"/>
<path d="M18.9111 45.3865L19.0762 45.4049L18.9708 45.3727L18.9111 45.3865Z" fill="#FFBAC6"/>
<path d="M19.2275 45.3081L19.2642 45.3726L19.3651 45.3127C19.3284 45.3127 19.2551 45.3219 19.2275 45.3081Z" fill="#FFBAC6"/>
<path d="M38.1647 21.8684C38.1647 21.8684 38.1647 21.8869 38.1647 21.8961L38.1876 21.8869C38.1876 21.7901 38.1738 21.7209 38.1647 21.7762V21.5181C38.2014 21.6748 38.3252 21.5642 38.394 21.4121C38.3756 21.4075 38.3619 21.4075 38.339 21.2231C38.316 21.2876 38.2885 21.6287 38.2518 21.4766C38.2335 21.2323 38.2656 21.2784 38.2885 21.1585C38.2426 21.2461 38.2197 20.9373 38.1647 20.9004V19.4253C38.1647 19.4253 38.1784 19.4346 38.183 19.4161L38.1738 19.2778C38.2197 19.1534 38.2335 19.536 38.2564 19.3608C38.2885 19.5452 38.3344 19.7526 38.3114 20.0108L38.2518 20.0615C38.2518 20.0615 38.2885 19.8909 38.2702 19.8218C38.2977 19.9278 38.1876 20.2182 38.2702 20.338L38.3114 20.1583C38.3435 20.3427 38.4078 20.5685 38.3894 20.799C38.449 20.693 38.3802 20.7483 38.4536 20.5823C38.3665 20.7252 38.4536 19.9969 38.3619 20.2228C38.4444 20.0569 38.3986 19.9324 38.4674 19.7157C38.449 19.7204 38.4307 19.7941 38.4399 19.6005C38.4353 19.5913 38.4261 19.5729 38.4215 19.559C38.4215 19.5544 38.4215 19.5498 38.4215 19.5452C38.4215 19.5452 38.4215 19.5498 38.4215 19.5544C38.4215 19.5452 38.4215 19.5452 38.4215 19.5544C38.4123 19.6005 38.4032 19.6374 38.3894 19.6512C38.3435 19.5544 38.3435 19.2502 38.3206 19.1442C38.3298 19.0289 38.3435 19.1903 38.3665 19.1303L38.3298 18.9736C38.3756 18.9598 38.4032 18.6694 38.4307 18.9413V18.697C38.4582 18.5541 38.4674 18.3605 38.449 18.2361C38.4582 18.1208 38.3986 17.9457 38.4353 18.0471L38.4078 17.6691H38.4169C38.4215 17.2911 38.3435 16.8947 38.4215 16.466C38.4123 16.3415 38.394 16.2079 38.4078 16.0004L38.449 15.9589C38.4444 15.876 38.449 15.7561 38.4582 15.6455C38.4582 15.5948 38.4582 15.5257 38.4582 15.4749C38.4582 15.4196 38.4399 15.3828 38.4307 15.3597C38.472 15.2445 38.4169 14.9863 38.2656 14.7651C38.1234 14.5346 37.8895 14.364 37.7427 14.2672L37.706 14.3041C37.5042 14.1797 37.2657 14.1197 36.9768 14.1289L36.9951 14.175C36.775 14.2073 36.454 14.1428 36.1237 14.1474C36.1467 14.1289 36.2292 14.1336 36.2889 14.1474C35.8944 14.046 35.4587 14.2211 35.101 14.1474C35.0138 14.1658 34.945 14.1566 34.8854 14.1474C34.8946 14.1474 34.8992 14.1474 34.9084 14.1474C34.8992 14.1474 34.8854 14.1474 34.8717 14.1474C34.8304 14.1382 34.7937 14.1289 34.7478 14.1243C34.7845 14.1336 34.8212 14.1428 34.8533 14.1474C34.7845 14.1474 34.679 14.152 34.5781 14.1658L34.5369 14.1151C34.5369 14.1151 34.5231 14.1151 34.5139 14.1151C34.413 14.0967 34.4314 14.1382 34.4864 14.175C34.436 14.1843 34.3901 14.1935 34.3534 14.2027C34.2708 14.1243 34.0874 14.2304 33.9727 14.1474C33.9085 14.1843 33.5233 14.1797 33.4224 14.2488C33.3077 14.2396 33.1976 14.2304 33.0967 14.2534L33.0463 14.1935L32.7986 14.2765C32.6473 14.2396 32.5831 14.2165 32.7344 14.1704C32.3721 14.2442 32.4409 14.1981 32.1336 14.2718L32.1474 14.2304C32.0373 14.2304 31.863 14.2857 31.7942 14.2534C31.5465 14.175 30.5742 14.2442 29.9413 14.1704C30.0651 14.2903 29.6478 14.1197 29.6203 14.2073C29.5836 14.1797 29.4964 14.1658 29.5973 14.1382C29.2763 14.1658 29.1112 14.0921 28.891 14.1704C28.8543 14.1428 28.9598 14.1289 28.9277 14.1151C28.9002 14.1197 28.8268 14.1382 28.7901 14.1243C28.758 14.1059 28.836 14.1013 28.8864 14.0875C28.5562 14.0921 28.5241 14.1797 28.5012 14.258C28.3361 14.2211 28.2489 14.2258 28.1297 14.2765C28.0701 14.2488 27.9738 14.2211 28.1801 14.2119C28.0655 14.2119 27.4784 14.175 27.4647 14.2396C27.428 14.2211 27.3041 14.235 27.272 14.2396C27.0152 14.2396 26.9923 14.2304 26.7354 14.2396L26.8042 14.2488C26.7538 14.2903 26.7033 14.2903 26.63 14.2903C26.5612 14.2903 26.474 14.2857 26.3639 14.3179V14.3087C26.3043 14.3179 26.2539 14.3318 26.2126 14.341C26.1713 14.3502 26.1392 14.364 26.1163 14.3779C26.0658 14.4009 26.0429 14.4147 26.0245 14.4332C25.9833 14.4701 25.9282 14.4839 25.7218 14.6406C25.7402 14.6406 25.7585 14.6498 25.7769 14.6544C25.7952 14.7098 25.7127 14.7697 25.6118 14.8757C25.5155 14.9771 25.41 15.1292 25.3962 15.2813C25.4146 15.2491 25.4283 15.2168 25.4513 15.1892C25.4467 15.2306 25.4329 15.2721 25.41 15.3228C25.3916 15.3689 25.3595 15.4242 25.3366 15.4796C25.2861 15.5994 25.2449 15.6962 25.2357 15.7746C25.2265 15.8068 25.2219 15.7239 25.2128 15.6778C25.1531 16.065 25.277 15.7285 25.2907 16.0189C25.2586 16.0742 25.2036 15.9497 25.199 16.1433C25.1715 16.2401 25.3091 16.7057 25.2449 16.9731C25.2724 16.9131 25.2953 16.8578 25.3183 16.9915C25.3274 17.1989 25.2173 17.5493 25.2999 17.7336C25.2907 17.7613 25.2861 17.7705 25.2816 17.7705C25.3045 17.9272 25.3182 18.2822 25.3641 18.3744C25.199 18.5219 25.4467 19.3516 25.2907 19.347L25.2999 19.831L25.2861 19.8172C25.277 20.126 25.3137 20.2366 25.3504 20.3426C25.3412 20.4164 25.3274 20.3611 25.3183 20.3565C25.2861 20.8082 25.2953 20.8543 25.3687 21.2323L25.3183 21.2738C25.3458 21.3752 25.2403 21.9283 25.2999 22.3709C25.2953 22.3709 25.2861 22.357 25.277 22.3202C25.3366 22.818 25.1394 23.514 25.3183 23.6984L25.3641 24.0257C25.3779 23.6016 25.4421 24.0902 25.4742 23.9151C25.4834 24.081 25.4191 24.3484 25.41 24.1409L25.4192 24.1087C25.3228 24.0349 25.387 24.6388 25.3228 24.6249C25.3228 25.0444 25.3137 25.4593 25.2999 25.8649C25.2953 26.0677 25.2861 26.2706 25.2816 26.4688C25.2816 26.7039 25.332 26.9389 25.4421 27.1418C25.4467 27.1003 25.4558 27.0542 25.465 27.0173C25.5063 27.1095 25.5567 27.2017 25.6164 27.2801C25.6531 27.3538 25.6347 27.4091 25.5063 27.2201C25.5109 27.2524 25.5338 27.2847 25.5567 27.3169C25.5843 27.3492 25.6164 27.3815 25.6485 27.4045C25.7127 27.4552 25.7769 27.4783 25.7861 27.4783C25.942 27.6258 25.9007 27.6166 25.8227 27.5797C25.7494 27.5428 25.6485 27.469 25.6989 27.5151C25.7448 27.5566 25.7952 27.5981 25.8457 27.6304L25.8182 27.5981C25.887 27.635 25.9282 27.6442 25.9833 27.6626C26.0108 27.6719 26.0383 27.6857 26.075 27.6995C26.1117 27.7134 26.1576 27.7364 26.2218 27.7594C26.2997 27.7963 26.3181 27.8102 26.3227 27.824C26.3273 27.8378 26.3227 27.8424 26.3548 27.8516C26.3548 27.8516 26.3731 27.8701 26.4557 27.8747C26.5199 27.8885 26.5887 27.8931 26.6575 27.8977C26.7263 27.8977 26.7767 27.8977 26.8363 27.9023L26.6987 27.8424C26.8501 27.8148 27.0198 27.8424 26.8639 27.7779C27.0978 27.8793 28.1435 27.8148 28.2856 27.847C28.4966 27.8055 28.7076 27.8055 28.969 27.8102C28.9048 27.7963 28.8635 27.7318 29.0882 27.741C29.0057 27.8747 29.501 27.8009 29.6799 27.8977C29.5194 27.8332 30.3174 27.8839 30.0651 27.7917C30.2532 27.8009 30.0743 27.8424 30.2165 27.8747C30.6614 27.824 31.198 27.907 31.7529 27.8931C31.7621 27.8747 31.6704 27.847 31.7896 27.8194L32.0786 27.907C32.1886 27.8977 32.1795 27.8055 32.3767 27.8655C32.3492 27.8516 32.3079 27.8286 32.3767 27.824C33.4591 27.9116 34.5827 27.7548 35.6834 27.9162C35.5367 27.8839 35.633 27.8793 35.7477 27.8747C35.6743 27.8655 35.7477 27.8286 35.7339 27.8055L36.1925 27.8747C36.2751 27.8055 36.6833 27.8747 36.7337 27.8055L36.587 27.8194C36.6924 27.7779 36.6007 27.7318 36.4998 27.6811H36.9539C37.6189 27.6811 38.1647 27.1325 38.1647 26.4642V21.8638V21.8684ZM38.1647 21.4904V21.177C38.183 21.2553 38.1876 21.3752 38.1647 21.4904ZM38.3986 18.5173C38.3986 18.5173 38.3986 18.5173 38.3986 18.5126C38.4169 18.379 38.4123 18.4251 38.3986 18.5173ZM38.2885 17.3787C38.3114 17.6783 38.2335 17.5078 38.2472 17.5585C38.2335 18.1208 38.394 18.0379 38.3344 18.5034C38.2793 18.6878 38.2243 18.5126 38.1876 18.5541C38.1693 18.3098 38.2243 18.1808 38.2197 18.0148L38.1922 18.2176C38.1738 18.1393 38.1601 17.9779 38.1784 17.8904C38.1738 17.9088 38.1693 17.9365 38.1647 17.9733V16.8209C38.2197 16.9316 38.2656 17.1344 38.2885 17.3787ZM38.1601 15.5856C38.1601 15.5072 38.1509 15.4288 38.1372 15.3505C38.1693 15.4104 38.1968 15.4796 38.2014 15.5441C38.1876 15.5349 38.1693 15.5625 38.1601 15.5856ZM37.2199 14.2718C37.2199 14.2718 37.3529 14.3226 37.4584 14.3917C37.5684 14.4654 37.6648 14.5576 37.6877 14.6083C37.6969 14.6268 37.7014 14.636 37.6969 14.6452C37.6189 14.5853 37.5363 14.5346 37.4492 14.4931L37.4767 14.4194C37.4767 14.4194 37.4354 14.4562 37.4125 14.4747C37.3254 14.4378 37.2336 14.4101 37.1373 14.3963C37.1465 14.3364 37.1694 14.2857 37.2153 14.2718H37.2199ZM35.7247 14.235L35.7889 14.2672L36.0549 14.2304C35.9862 14.2672 35.8623 14.3226 35.7247 14.3779H35.289C35.4174 14.3133 35.5688 14.2534 35.7293 14.235H35.7247ZM33.4086 14.2534C33.4086 14.2534 33.3948 14.2626 33.3903 14.2718C33.3903 14.2626 33.3582 14.2534 33.4086 14.2534ZM32.7573 14.2903C32.7573 14.2903 32.7482 14.3456 32.7573 14.3825H32.5555L32.7573 14.2903ZM28.4232 14.3041C28.4645 14.3133 28.4278 14.3364 28.3774 14.364C28.4003 14.3594 28.4186 14.3548 28.437 14.3502C28.4828 14.3594 28.5012 14.3733 28.5012 14.3825H28.3407C28.3407 14.3825 28.3682 14.3686 28.3774 14.364C28.3544 14.3686 28.3269 14.3779 28.2994 14.3825H28.226C28.171 14.364 28.1297 14.3456 28.0976 14.341L28.4278 14.3041H28.4232ZM26.3869 27.8516L26.3273 27.824C26.396 27.8378 26.419 27.8378 26.4236 27.8424C26.4236 27.8424 26.4052 27.8516 26.3869 27.8516Z" fill="#FFBAC6"/>
<path d="M37.0268 27.93C36.9397 27.93 36.9718 27.9715 36.958 27.9807C37.1094 27.9623 37.0222 27.9208 37.0268 27.93Z" fill="#F4B2BD"/>
<path d="M38.1367 27.174C38.1597 27.1095 38.1734 27.0404 38.1918 26.9758C38.178 27.0311 38.1597 27.0911 38.1367 27.1464V27.174Z" fill="#F4B2BD"/>
<path d="M38.3157 26.3028C38.3065 26.1692 38.3019 26.0447 38.3157 25.9617C38.279 26.017 38.2836 26.1185 38.2928 26.2337C38.3019 26.3489 38.3203 26.4688 38.2928 26.5886C38.2882 26.6025 38.279 26.6117 38.2744 26.6255C38.2882 26.6624 38.3019 26.6993 38.3157 26.7361C38.3157 26.6993 38.3249 26.6624 38.3294 26.6255C38.3294 26.5886 38.3294 26.5518 38.3294 26.5103C38.3294 26.4319 38.3203 26.372 38.3157 26.3028Z" fill="#F4B2BD"/>
<path d="M38.4723 25.3533C38.4447 25.3901 38.4493 25.2196 38.4631 25.4962C38.4631 25.4823 38.4677 25.4777 38.4723 25.4685C38.4723 25.4454 38.4723 25.4086 38.4723 25.3533Z" fill="#F4B2BD"/>
<path d="M38.4678 25.4685C38.4907 25.3901 38.4678 25.5884 38.4678 25.4685Z" fill="#F4B2BD"/>
<path d="M38.4541 24.9153L38.477 25.0721C38.4954 25.0398 38.4954 24.8969 38.5091 24.9522C38.4954 24.7909 38.477 24.8231 38.4541 24.9153Z" fill="#F4B2BD"/>
<path d="M38.3984 24.7632L38.4076 24.8462C38.4076 24.8462 38.4168 24.8093 38.3984 24.7632Z" fill="#F4B2BD"/>
<path d="M38.4215 24.9246C38.4215 24.9246 38.4215 24.943 38.4353 25.0168L38.4123 24.8416C38.4123 24.8416 38.3756 24.8647 38.4215 24.92V24.9246Z" fill="#F4B2BD"/>
<path d="M38.3711 25.1643C38.3803 25.4685 38.4307 25.4224 38.4215 25.1182C38.4078 25.2057 38.394 25.321 38.3711 25.1643Z" fill="#F4B2BD"/>
<path d="M38.2427 25.9018L38.2197 26.0216L38.2427 26.123C38.2289 26.0723 38.261 25.8926 38.2427 25.9018Z" fill="#F4B2BD"/>
<path d="M38.4903 23.9289C38.4903 23.9289 38.449 23.9842 38.4307 23.9934L38.449 24.1087C38.4582 24.0487 38.4674 23.9335 38.4903 23.9289Z" fill="#F4B2BD"/>
<path d="M38.4308 23.9934L38.4033 23.8182C38.4033 23.975 38.4125 24.0026 38.4308 23.9934Z" fill="#F4B2BD"/>
<path d="M38.3203 24.7356L38.3754 25.0213L38.3203 24.6802V24.7356Z" fill="#F4B2BD"/>
<path d="M38.4903 23.2605L38.527 23.3619L38.4766 23.1821L38.4903 23.2605Z" fill="#F4B2BD"/>
<path d="M38.4991 22.4815C38.5129 22.5783 38.5083 22.6843 38.4854 22.818C38.5129 22.8918 38.5358 22.7166 38.5542 22.795C38.5496 22.6751 38.522 22.5737 38.4991 22.4815Z" fill="#F4B2BD"/>
<path d="M38.4999 22.4815C38.4953 22.4308 38.4815 22.3801 38.4678 22.3248C38.4769 22.3755 38.4861 22.4262 38.4999 22.4815Z" fill="#F4B2BD"/>
<path d="M38.4534 23.3849L38.4121 23.4541C38.4121 23.4541 38.4121 23.5002 38.4121 23.5232C38.4213 23.5094 38.4442 23.4817 38.458 23.3849H38.4534Z" fill="#F4B2BD"/>
<path d="M38.4122 23.5371C38.4122 23.5371 38.4122 23.5278 38.4122 23.5186C38.4122 23.5232 38.4076 23.5278 38.4122 23.5371Z" fill="#F4B2BD"/>
<path d="M38.3616 24.2792C38.3386 24.1778 38.3111 23.9612 38.2744 24.1686C38.3019 24.2424 38.3249 24.1225 38.3616 24.2792Z" fill="#F4B2BD"/>
<path d="M38.3889 23.8228L38.3568 23.6246L38.3477 23.809C38.3477 23.809 38.3752 23.7721 38.3889 23.8228Z" fill="#F4B2BD"/>
<path d="M38.3438 23.5325L38.3575 23.6247L38.3621 23.5555L38.3438 23.5325Z" fill="#F4B2BD"/>
<path d="M38.4263 22.6428C38.408 22.5645 38.408 22.4769 38.4034 22.3755C38.3942 22.4815 38.3896 22.5921 38.3896 22.6936C38.4034 22.7074 38.4263 22.7535 38.4263 22.6382V22.6428Z" fill="#F4B2BD"/>
<path d="M38.4171 23.0393C38.4171 23.0393 38.4171 23.0254 38.4171 23.0208C38.4171 23.03 38.4125 23.0393 38.4171 23.0393Z" fill="#F4B2BD"/>
<path d="M38.4027 21.3982C38.4027 21.3982 38.3981 21.4074 38.3936 21.4121C38.3936 21.4121 38.3981 21.4121 38.4027 21.4121V21.3936V21.3982Z" fill="#F4B2BD"/>
<path d="M38.3845 22.712C38.3753 22.7903 38.3845 22.841 38.3982 22.8871C38.3982 22.8272 38.3891 22.7627 38.3891 22.6981C38.3845 22.6935 38.3799 22.6889 38.3799 22.7166L38.3845 22.712Z" fill="#F4B2BD"/>
<path d="M38.4487 22.0528C38.4395 22.0943 38.4304 22.1404 38.4258 22.1911C38.4395 22.1496 38.4625 22.0666 38.4487 22.0528Z" fill="#F4B2BD"/>
<path d="M38.4258 22.9932C38.4258 22.9932 38.4258 23.0024 38.4258 23.007C38.435 22.9793 38.4304 22.9839 38.4258 22.9932Z" fill="#F4B2BD"/>
<path d="M38.426 22.9932C38.4214 22.9517 38.4076 22.9194 38.3984 22.8871C38.3984 22.9379 38.4076 22.9793 38.4122 23.0208C38.4122 23.0116 38.4214 23.0024 38.426 22.9932Z" fill="#F4B2BD"/>
<path d="M38.3936 21.767V21.8408C38.4073 21.7532 38.4211 21.6933 38.4532 21.578C38.4348 21.4536 38.4211 21.4259 38.4073 21.4167V21.7901L38.3936 21.7624V21.767Z" fill="#F4B2BD"/>
<path d="M38.3982 22.1819C38.3569 22.1219 38.334 21.9422 38.2881 22.0528C38.2881 22.2741 38.3248 22.2095 38.3431 22.3386C38.3339 21.9791 38.3661 22.44 38.3936 22.1819C38.4027 22.251 38.4027 22.3155 38.4073 22.3755C38.4119 22.3109 38.4211 22.251 38.4257 22.1911C38.4257 22.1911 38.4257 22.1957 38.4257 22.2003C38.4211 22.2141 38.4165 22.2187 38.4211 22.2003C38.4211 22.2003 38.4211 22.1957 38.4211 22.1911C38.4165 22.1911 38.4119 22.1819 38.4027 22.1727C38.4119 22.0712 38.4119 22.1542 38.4211 22.1911C38.4211 22.1911 38.4211 22.1911 38.4257 22.1911L38.4027 21.8315C38.3982 21.9053 38.3982 22.0021 38.4027 22.1727L38.3982 22.1819Z" fill="#F4B2BD"/>
<path d="M38.1787 23.975L38.1879 23.9658C38.1833 23.9427 38.1787 23.9335 38.1787 23.975Z" fill="#F4B2BD"/>
<path d="M38.3027 23.6662C38.3027 23.6662 38.3073 23.657 38.3119 23.657C38.3119 23.6524 38.3073 23.657 38.3027 23.6662Z" fill="#F4B2BD"/>
<path d="M38.2425 23.9842V23.9612C38.2471 23.8459 38.2838 23.7076 38.3022 23.6661C38.2701 23.703 38.2425 23.7445 38.2058 23.8321C38.2104 23.8597 38.2288 23.8782 38.2242 23.9658C38.2104 24.0395 38.2013 23.9658 38.1875 23.9658C38.2013 24.0165 38.2196 24.1455 38.238 23.9842H38.2425Z" fill="#F4B2BD"/>
<path d="M38.293 22.9932L38.2701 22.6935L38.2334 22.8457L38.2563 22.8364C38.2472 23.007 38.2747 22.9701 38.293 22.9886V22.9932Z" fill="#F4B2BD"/>
<path d="M38.4266 21.366L38.4724 21.4075L38.4082 21.2323L38.4266 21.366Z" fill="#F4B2BD"/>
<path d="M38.4219 20.9788L38.4632 20.9926L38.4356 20.8912L38.4219 20.9788Z" fill="#F4B2BD"/>
<path d="M34.7431 14.129C34.6147 14.0921 34.4725 14.0322 34.4909 14.0782L34.5321 14.1243C34.6193 14.1151 34.6881 14.1243 34.7477 14.129H34.7431Z" fill="#F4B2BD"/>
<path d="M38.4033 17.0099C38.4216 16.8993 38.4262 16.8117 38.4308 16.7333C38.4079 16.867 38.3666 16.973 38.4033 17.0099Z" fill="#F4B2BD"/>
<path d="M25.2539 17.6922C25.2631 17.7475 25.2722 17.7705 25.2814 17.7659C25.2722 17.7106 25.2677 17.6783 25.2539 17.6922Z" fill="#F4B2BD"/>
<path d="M38.4311 16.7333C38.4494 16.6365 38.4632 16.5213 38.4311 16.4153C38.4311 16.4337 38.4265 16.4522 38.4219 16.4752C38.431 16.5536 38.4356 16.6365 38.4311 16.7333Z" fill="#F4B2BD"/>
<path d="M38.4395 19.4207C38.444 19.4345 38.4395 19.5037 38.4395 19.4207Z" fill="#F4B2BD"/>
<path d="M38.2471 19.7849C38.2471 19.7849 38.2654 19.8034 38.27 19.8172C38.2654 19.7987 38.2608 19.7849 38.2471 19.7849Z" fill="#F4B2BD"/>
<path d="M38.4219 19.5452C38.4265 19.5129 38.431 19.4806 38.4356 19.4391C38.4356 19.4576 38.4265 19.4899 38.4219 19.5452Z" fill="#F4B2BD"/>
<path d="M38.4395 19.5267C38.4395 19.5544 38.4395 19.5774 38.4395 19.6005C38.4486 19.6097 38.4532 19.6005 38.4395 19.5267Z" fill="#F4B2BD"/>
<path d="M38.4395 19.4207C38.4395 19.3977 38.4395 19.3608 38.4395 19.3055C38.4395 19.3516 38.4395 19.3977 38.4395 19.4392C38.4395 19.4207 38.444 19.4161 38.4486 19.4207H38.4395Z" fill="#F4B2BD"/>
<path d="M38.4493 20.0938C38.4493 20.1813 38.4401 20.209 38.4355 20.2551C38.4447 20.2551 38.4585 20.2274 38.4631 20.2551L38.4539 20.0938H38.4493Z" fill="#F4B2BD"/>
<path d="M38.3025 20.4348C38.2613 20.4487 38.275 20.5593 38.2842 20.6838C38.2842 20.6745 38.2842 20.6699 38.2842 20.6607C38.3392 20.6976 38.3209 20.5639 38.3025 20.4302V20.4348Z" fill="#F4B2BD"/>
<path d="M38.2842 20.716C38.2842 20.7529 38.2842 20.7944 38.2842 20.8312C38.3071 20.8451 38.2888 20.7851 38.2842 20.716Z" fill="#F4B2BD"/>
<path d="M38.4076 19.1488C38.3985 19.2087 38.4581 19.1857 38.4443 19.2179C38.4948 19.2825 38.3801 18.8215 38.4076 19.1488Z" fill="#F4B2BD"/>
<path d="M38.165 20.5363L38.2155 20.4902L38.1742 20.421L38.165 20.5363Z" fill="#F4B2BD"/>
<path d="M38.2013 19.5498L38.1875 19.748C38.1875 19.748 38.2013 19.7711 38.2058 19.8033C38.2058 19.6789 38.2196 19.5452 38.2058 19.5498H38.2013Z" fill="#F4B2BD"/>
<path d="M38.2152 19.9647C38.2152 19.9278 38.2152 19.8541 38.2061 19.8033C38.2061 19.8679 38.2061 19.9278 38.2152 19.9647Z" fill="#F4B2BD"/>
<path d="M38.1782 17.3096C38.192 17.3603 38.1966 17.4433 38.2149 17.411L38.2012 17.1943C38.2012 17.1943 38.1737 17.2312 38.1782 17.3142V17.3096Z" fill="#F4B2BD"/>
<path d="M36.5 27.9346L36.6651 27.953L36.5596 27.9208L36.5 27.9346Z" fill="#F4B2BD"/>
<path d="M36.8164 27.8563L36.8531 27.9208L36.954 27.8609C36.9173 27.8609 36.8439 27.8701 36.8164 27.8563Z" fill="#F4B2BD"/>
<path d="M44.5076 50.6322C44.4572 50.6414 44.4342 50.646 44.4205 50.6552C44.3975 50.6691 44.4205 50.6783 44.3838 50.6875C44.5856 50.6829 44.7003 50.6276 44.7645 50.5953C44.8287 50.5584 44.8424 50.5446 44.8333 50.54C44.8195 50.5354 44.7278 50.5677 44.7369 50.5677C44.6315 50.6091 44.5535 50.623 44.5076 50.6368V50.6322Z" fill="#EDC057"/>
<path d="M45.2778 44.4277L45.2962 44.5383L45.2549 43.6348L45.2778 44.4277Z" fill="#EDC057"/>
<path d="M45.2782 38.7118C45.2094 39.2511 45.2874 40.7815 45.2644 41.8002L45.2461 41.9662L45.3011 42.4271C45.292 41.1872 45.2553 39.583 45.2736 38.7072L45.2782 38.7118Z" fill="#EDC057"/>
<path d="M45.425 36.3748C45.425 36.3056 45.4296 36.2872 45.4342 36.2457C45.4342 36.1212 45.4342 35.9507 45.4342 35.6649C45.4067 35.8539 45.4112 35.0057 45.425 36.3748Z" fill="#EDC057"/>
<path d="M45.4297 36.2457C45.4526 35.8539 45.4297 36.8495 45.4297 36.2457Z" fill="#EDC057"/>
<path d="M45.416 33.4615L45.439 34.2544C45.4573 34.0884 45.4573 33.3832 45.4711 33.6459C45.4573 32.83 45.4435 33.0006 45.416 33.4615Z" fill="#EDC057"/>
<path d="M45.3613 32.7101L45.3705 33.1204C45.3751 33.0466 45.3797 32.9406 45.3613 32.7101Z" fill="#EDC057"/>
<path d="M45.3793 33.5215C45.3563 33.4523 45.3793 33.6229 45.393 33.9916L45.3701 33.1204C45.3609 33.2357 45.3334 33.2495 45.3793 33.5215Z" fill="#EDC057"/>
<path d="M45.333 34.7107C45.3422 36.2273 45.3926 36.006 45.3835 34.4849C45.3697 34.932 45.3605 35.5036 45.333 34.7107Z" fill="#EDC057"/>
<path d="M45.2046 38.4168L45.1816 39.0115L45.2046 39.5277C45.1908 39.2696 45.2229 38.3799 45.2046 38.4168Z" fill="#EDC057"/>
<path d="M45.3926 28.8473L45.4109 29.4327C45.4201 29.1331 45.4293 28.5615 45.4522 28.52C45.4384 28.4693 45.4109 28.7874 45.3926 28.8473Z" fill="#EDC057"/>
<path d="M45.3928 28.8473L45.3652 27.9715C45.3652 28.7551 45.3744 28.898 45.3928 28.8473Z" fill="#EDC057"/>
<path d="M45.2832 32.5719L45.3382 34.0101L45.2832 32.2907V32.5719Z" fill="#EDC057"/>
<path d="M45.4529 25.1735L45.4896 25.6714L45.4346 24.7863L45.4529 25.1735Z" fill="#EDC057"/>
<path d="M45.462 21.2554C45.4758 21.7486 45.4712 22.2741 45.4482 22.9517C45.4758 23.3205 45.4987 22.4492 45.517 22.8365C45.5124 22.2326 45.4849 21.7163 45.4666 21.2554H45.462Z" fill="#EDC057"/>
<path d="M45.4618 21.2554C45.4572 20.9927 45.4434 20.7345 45.4297 20.4764C45.4389 20.7207 45.448 20.9788 45.4618 21.2554Z" fill="#EDC057"/>
<path d="M45.4163 25.7912L45.375 26.1369C45.375 26.2429 45.375 26.3628 45.375 26.4826C45.3842 26.4135 45.4071 26.2844 45.4163 25.7912Z" fill="#EDC057"/>
<path d="M45.3244 30.2717C45.3015 29.7554 45.274 28.6814 45.2373 29.7231C45.2648 30.0919 45.2878 29.4973 45.3244 30.2717Z" fill="#EDC057"/>
<path d="M45.3197 26.9943L45.3105 27.9254C45.3105 27.9254 45.3381 27.741 45.3518 27.9945L45.3243 26.9943H45.3197Z" fill="#EDC057"/>
<path d="M45.3057 26.538L45.3194 26.9943L45.324 26.6486L45.3057 26.538Z" fill="#EDC057"/>
<path d="M45.3883 22.0713C45.3699 21.6702 45.3699 21.2277 45.3653 20.7345C45.3561 21.2692 45.3516 21.8177 45.3516 22.3386C45.3653 22.4124 45.3883 22.6429 45.3883 22.0713Z" fill="#EDC057"/>
<path d="M45.379 24.0534C45.379 24.0257 45.379 23.9889 45.379 23.9658C45.379 24.0211 45.3744 24.0626 45.379 24.0534Z" fill="#EDC057"/>
<path d="M45.3656 15.8438C45.3656 15.8714 45.361 15.8945 45.3564 15.9221C45.3564 15.9267 45.361 15.9313 45.3656 15.9406V15.8438Z" fill="#EDC057"/>
<path d="M45.3474 22.4308C45.3382 22.8319 45.3474 23.0716 45.3611 23.2974C45.3611 22.9978 45.3519 22.6797 45.3519 22.3386C45.3474 22.3064 45.3428 22.2971 45.3428 22.4262L45.3474 22.4308Z" fill="#EDC057"/>
<path d="M45.4067 19.1119C45.3975 19.3194 45.393 19.5591 45.3838 19.8034C45.3975 19.6006 45.4159 19.1857 45.4067 19.1119Z" fill="#EDC057"/>
<path d="M45.3887 23.8275C45.3887 23.8275 45.3887 23.8644 45.3887 23.8874C45.3978 23.7584 45.3933 23.7722 45.3887 23.8275Z" fill="#EDC057"/>
<path d="M45.3888 23.8275C45.3843 23.6201 45.3705 23.4588 45.3613 23.2974C45.3613 23.5417 45.3705 23.7676 45.3751 23.9612C45.3751 23.9105 45.3843 23.8598 45.3888 23.8275Z" fill="#EDC057"/>
<path d="M45.3564 17.6737V18.0517C45.3702 17.6184 45.384 17.3096 45.4161 16.7426C45.3977 16.1111 45.384 15.982 45.3702 15.9406V17.8028L45.361 17.6737H45.3564Z" fill="#EDC057"/>
<path d="M45.3604 19.7527C45.3191 19.4576 45.3007 18.5496 45.2549 19.1027C45.2549 20.2136 45.2916 19.8817 45.3099 20.5455C45.3007 18.7524 45.3329 21.0618 45.3558 19.7665C45.365 20.1168 45.365 20.4349 45.365 20.7345C45.3695 20.4118 45.3787 20.0984 45.3833 19.808C45.3833 19.8264 45.3833 19.8356 45.3833 19.8495V19.8587C45.3787 19.937 45.3741 19.9601 45.3787 19.8725C45.3787 19.8679 45.3787 19.8448 45.3787 19.8356C45.3741 19.8218 45.3695 19.7895 45.3604 19.7527C45.3695 19.2318 45.3695 19.6697 45.3787 19.8356C45.3787 19.8402 45.3787 19.8541 45.3833 19.8587C45.3833 19.8587 45.3833 19.8587 45.3833 19.8541L45.3604 18.0563C45.3558 18.4343 45.3558 18.9137 45.3604 19.7573V19.7527Z" fill="#EDC057"/>
<path d="M45.1455 28.7644C45.1455 28.7091 45.1501 28.7091 45.1547 28.7091C45.1501 28.5938 45.1455 28.5477 45.1455 28.7644Z" fill="#EDC057"/>
<path d="M45.1999 28.6722C45.2136 28.1052 45.2457 27.4138 45.2641 27.2017C45.232 27.3907 45.2045 27.5843 45.1678 28.0268C45.1723 28.1559 45.1907 28.2665 45.1861 28.6906C45.1723 29.0594 45.1678 28.6906 45.1494 28.7091C45.1586 28.9626 45.1815 29.6033 45.1999 28.8012V28.6722Z" fill="#EDC057"/>
<path d="M45.2646 27.2017C45.2646 27.2017 45.2692 27.1648 45.2738 27.1464C45.2738 27.1187 45.2692 27.1418 45.2646 27.2017Z" fill="#EDC057"/>
<path d="M45.2549 23.8368L45.232 22.3433L45.1953 23.1038L45.2182 23.067C45.2091 23.9197 45.2366 23.7354 45.2549 23.8414V23.8368Z" fill="#EDC057"/>
<path d="M45.3885 15.6732L45.4343 15.8714L45.3701 15.0048L45.3885 15.6732Z" fill="#EDC057"/>
<path d="M45.3842 13.4744V13.6173C45.3933 13.6496 45.4071 13.6865 45.4209 13.7279L45.4117 13.456L45.1548 13.3177L45.0402 13.2578L44.9668 13.2209L45.1502 13.3315L45.3887 13.4744H45.3842Z" fill="#EDC057"/>
<path d="M4.78973 11.0636L4.97319 11.0129C5.33551 10.7962 5.61987 10.6395 5.86295 10.5104C5.32175 10.7732 4.70717 11.0544 4.78973 11.0636Z" fill="#EDC057"/>
<path d="M27.8359 3.46704C28.3725 3.80354 28.7945 4.08933 28.955 4.13543C28.5101 3.85885 28.1524 3.64681 27.8359 3.46704Z" fill="#EDC057"/>
<path d="M2.6115 33.5168C2.60233 33.2495 2.59316 33.1343 2.58398 33.1389C2.59316 33.4154 2.59774 33.5722 2.6115 33.5168Z" fill="#EDC057"/>
<path d="M26.5244 2.72028C26.6024 2.77098 26.6804 2.81708 26.7583 2.86778C27.0931 3.05216 27.4279 3.23655 27.8361 3.46703C27.4417 3.21811 26.9831 2.94614 26.5244 2.72028Z" fill="#EDC057"/>
<path d="M38.9033 9.76373C39.2427 9.95272 38.9584 9.79139 38.9033 9.76373Z" fill="#EDC057"/>
<path d="M40.3252 10.8055C40.3573 10.8101 40.4077 10.8331 40.472 10.8608C40.3986 10.8239 40.339 10.8008 40.3252 10.8055Z" fill="#EDC057"/>
<path d="M39.4031 10.0725C39.2793 9.99417 39.1325 9.90658 38.9766 9.81439C39.0454 9.85588 39.1738 9.93424 39.4031 10.0725Z" fill="#EDC057"/>
<path d="M39.3438 10.0126C39.4584 10.0818 39.5501 10.1325 39.6373 10.1832C39.6831 10.2016 39.6465 10.174 39.3438 10.0126Z" fill="#EDC057"/>
<path d="M38.9031 9.76369C38.8022 9.70838 38.6646 9.63002 38.4307 9.49634C38.6233 9.60697 38.8022 9.71299 38.9764 9.8144C38.9122 9.77291 38.8847 9.75447 38.9031 9.76369Z" fill="#EDC057"/>
<path d="M42.3382 11.6951L41.6777 11.331C42.0355 11.5292 42.1547 11.6122 42.3336 11.7228C42.3244 11.7044 42.2281 11.6352 42.3428 11.6951H42.3382Z" fill="#EDC057"/>
<path d="M43.9574 12.8337C44.1363 12.8659 43.5767 12.5709 43.0264 12.2805C43.0676 12.3497 43.5309 12.6032 44.0491 12.889C44.017 12.8705 43.9895 12.8567 43.9574 12.8383V12.8337Z" fill="#EDC057"/>
<path d="M44.641 13.2209C44.7098 13.2347 44.4484 13.1056 44.1641 12.9489C44.3246 13.0365 44.4851 13.1287 44.641 13.2209Z" fill="#EDC057"/>
<path d="M38.0819 9.29354C38.38 9.39956 36.4262 8.42694 37.7746 9.15986C38.0131 9.30736 37.9535 9.19673 38.0819 9.29354Z" fill="#EDC057"/>
<path d="M43.3796 12.6401L43.2145 12.488L42.9072 12.3635L43.3796 12.6401Z" fill="#EDC057"/>
<path d="M40.1509 10.7732C40.1509 10.7732 40.2472 10.8147 40.3802 10.8838C39.8757 10.5934 39.3254 10.2662 39.3391 10.2938L40.1555 10.7732H40.1509Z" fill="#EDC057"/>
<path d="M40.375 10.8839C40.6364 11.036 40.8887 11.1789 41.04 11.2526C40.8978 11.1696 40.5906 10.9991 40.375 10.8839Z" fill="#EDC057"/>
<path d="M29.6022 4.75312C29.5013 4.71624 29.7443 4.86835 30.0792 5.04813C30.2993 5.15876 30.6341 5.34314 30.5057 5.24634L29.6022 4.74851V4.75312Z" fill="#EDC057"/>
<path d="M11.9678 7.05791C12.0687 7.00721 12.1696 6.94267 12.2705 6.89197C12.1742 6.94267 12.0687 6.99799 11.9678 7.05791Z" fill="#EDC057"/>
<path d="M0.620795 36.9924C0.620795 38.6519 0.707934 38.8224 0.790488 38.9423C0.753797 39.7858 0.758388 40.2053 0.808838 40.8138C0.781319 41.1088 0.753802 41.5974 0.744629 40.5649C0.744629 41.1457 0.707937 44.1142 0.772146 44.1741C0.758387 44.3539 0.76756 44.9854 0.772146 45.1375C0.772146 46.4421 0.762973 46.5573 0.772146 47.8341L0.781321 47.4792C0.822598 47.7604 0.822599 48.06 0.818012 48.4426H2.45076C2.45076 47.765 2.53331 46.4789 2.50579 45.474L2.47828 45.9627C2.44159 45.2205 2.61587 43.893 2.62963 43.1508C2.6388 42.9895 2.64339 43.4044 2.65256 43.6348C2.71218 41.6896 2.58835 43.3813 2.57459 41.9339C2.6067 41.6665 2.66173 42.2796 2.66632 41.3024C2.69384 40.8184 2.55624 38.4721 2.62045 37.1399C2.59294 37.435 2.57 37.7254 2.54707 37.0524C2.5379 36.0198 2.64339 34.2636 2.56542 33.3324C2.57459 33.2034 2.57918 33.1527 2.58376 33.1481C2.56083 32.3598 2.54707 30.5851 2.50579 30.1104C2.6709 29.382 2.42783 25.2058 2.57918 25.2242L2.57 22.7996L2.58376 22.8641C2.59293 21.3153 2.55624 20.7668 2.51955 20.2182C2.52873 19.8587 2.54249 20.1214 2.55166 20.1491C2.58377 17.8812 2.57459 17.6553 2.50121 15.7562L2.55166 15.5579C2.55166 15.4842 2.54707 15.3643 2.54707 15.203C2.54707 15.1246 2.54707 15.0325 2.54707 14.9357C2.54707 14.8711 2.54707 14.7974 2.54707 14.719C2.63421 14.6729 2.73053 14.6176 2.83601 14.5623C2.96902 14.4885 3.11119 14.4102 3.25796 14.3318C3.55149 14.1705 3.87253 13.9953 4.20275 13.8109C4.86319 13.4422 5.56949 13.0411 6.21158 12.6539C6.19782 12.6677 6.16113 12.7 6.01896 12.7876C8.04613 11.5614 11.0043 10.114 11.674 9.5148L13.0086 8.6989C11.2474 9.68535 13.2333 8.47765 12.4995 8.86024C13.1829 8.45921 14.3065 7.89684 13.4672 8.38545L13.3296 8.4546C13.0636 8.72195 15.5265 7.24228 15.5082 7.32986C16.7969 6.59233 18.0811 5.86863 19.347 5.15876C20.5853 4.46732 21.8052 3.78049 23.0115 3.10289C23.8095 3.56384 24.6029 4.01558 25.3826 4.46732L25.0432 4.18614L26.1715 4.83148C26.4604 5.01586 26.543 5.11266 25.7404 4.6517C25.9422 4.78999 26.2861 4.97437 26.5797 5.12649C26.8732 5.27399 27.1209 5.38923 27.1392 5.38923C28.7032 6.31576 26.4833 5.11727 26.9649 5.39384L27.6254 5.76261L27.4832 5.67042C28.029 5.94699 28.0932 5.94238 29.0563 6.49553C29.6617 6.85969 29.3498 6.71679 29.5883 6.85508C29.5883 6.85508 29.6067 6.86891 29.6617 6.90117C29.7167 6.93344 29.8131 6.98414 29.9552 7.06712L31.3724 7.88301L30.8312 7.50503C31.4733 7.83692 32.1659 8.27021 31.5421 7.83231C32.4594 8.47765 36.8256 10.8885 37.4035 11.2526C38.307 11.7136 39.1738 12.2114 40.2516 12.8337C39.9902 12.6677 39.8572 12.5156 40.7837 13.0549C40.3892 12.9904 42.3568 14.0276 43.1135 14.5623C43.0677 14.5254 43.0814 14.53 43.1411 14.5623C43.1777 14.5807 43.2374 14.613 43.3062 14.6499C43.3474 14.6729 43.4025 14.7006 43.4575 14.7328C43.4621 15.1246 43.4713 15.6594 43.4759 16.0005C43.485 16.3692 43.4988 16.526 43.5309 16.1019C43.5217 17.0468 43.4804 16.1572 43.4483 16.8763C43.4988 19.1257 43.4162 21.8316 43.4346 24.6111C43.4529 24.6526 43.4804 24.1871 43.5034 24.7863L43.4162 26.2521C43.4254 26.8007 43.5171 26.7592 43.4575 27.7595C43.4713 27.6166 43.4942 27.4045 43.4988 27.7733C43.4116 33.2172 43.5676 38.9008 43.4071 44.4323C43.4392 43.6855 43.4437 44.1834 43.4437 44.755C43.4529 44.3816 43.485 44.7642 43.5125 44.6904L43.4483 47.0044C43.4804 47.2165 43.4804 47.8341 43.485 48.4334V48.4518H45.1315V18.2499C45.1315 18.2776 45.1315 18.3052 45.1315 18.3329L45.1545 18.296C45.1545 17.8166 45.1407 17.4617 45.1315 17.7429V16.466C45.1636 17.245 45.2875 16.6735 45.3609 15.9175C45.3425 15.8898 45.3288 15.8898 45.3058 14.9679C45.2829 15.2906 45.2554 17.01 45.2187 16.2309C45.2003 15.014 45.2324 15.2307 45.2554 14.6406C45.237 14.8158 45.2233 14.6821 45.2095 14.447C45.1957 14.2073 45.1774 13.857 45.1636 13.6127C45.026 13.5482 44.9343 13.5067 44.8976 13.4975L38.8207 10.0357C38.862 10.0495 38.8574 10.0403 38.784 9.99419L38.2153 9.68074C37.7154 9.34424 39.3068 10.2293 38.6005 9.8052C39.3711 10.2062 40.2425 10.6441 41.2973 11.2757L41.467 11.4462C41.4533 11.4186 40.7882 11.0129 40.481 10.8608C40.9396 11.0867 42.077 11.8703 42.5999 12.0731L41.8706 11.6075C42.6457 12.0132 43.6134 12.4834 44.5491 13.0411C44.1455 12.7369 44.3289 12.9259 43.6914 12.4741C44.2097 12.8752 41.4945 11.2249 42.0862 11.6536C41.4716 11.2203 40.9579 10.976 40.1278 10.4229C40.1462 10.4598 40.4305 10.6395 39.6416 10.1786C39.605 10.1647 39.5132 10.1233 39.4582 10.0956C39.4353 10.0818 39.4261 10.0772 39.4077 10.0633C39.4215 10.0726 39.4353 10.0818 39.449 10.091C39.4123 10.0726 39.4077 10.0726 39.4628 10.1002C39.6462 10.2155 39.7976 10.3123 39.8526 10.3583C39.4399 10.1786 38.1786 9.45948 37.7383 9.23822C37.2705 8.96165 37.9447 9.33042 37.697 9.15986L37.0412 8.83258C36.9999 8.75422 35.8258 8.04896 36.9449 8.65742L35.9496 8.08583C35.3763 7.72629 34.5691 7.25611 34.0646 6.99336C33.5968 6.71679 32.8538 6.36185 33.2804 6.56467L31.7026 5.69808L31.6935 5.67964C30.1524 4.7946 28.483 3.93722 26.7539 2.85858C26.2311 2.57279 25.6853 2.28238 24.8231 1.77072L24.6717 1.63704C24.4745 1.52642 24.2177 1.37891 23.9471 1.22218C23.6352 1.0378 23.305 0.844199 23.0115 0.673645C22.8739 0.752008 22.7455 0.825761 22.6216 0.890295C22.5437 0.93639 22.4703 0.977877 22.4061 1.01475C22.2776 1.09312 22.1767 1.15304 22.1217 1.19453C21.3558 1.50798 18.8746 3.01992 17.6913 3.66987L17.6683 3.74362C16.8611 4.19997 16.0906 4.65631 15.1 5.24634L15.1825 5.25556C14.334 5.78105 12.9444 6.49092 11.5822 7.27455C11.6373 7.23306 11.7932 7.14087 11.9629 7.04407C10.3806 7.86918 8.7662 8.96165 7.33983 9.68535C6.97751 9.91122 6.70691 10.0587 6.44549 10.197C6.47759 10.1786 6.5097 10.1601 6.53722 10.1417C6.50053 10.1647 6.4409 10.197 6.38587 10.2293C6.22076 10.3169 6.04648 10.4044 5.86302 10.4966C6.02354 10.4183 6.17489 10.3445 6.30331 10.2754C6.01895 10.4367 5.58783 10.6902 5.17047 10.9438L4.96867 10.9991C4.93657 11.0175 4.90905 11.036 4.87236 11.0544C4.45042 11.2757 4.55131 11.2664 4.78981 11.1742C4.57883 11.3033 4.3908 11.4232 4.24403 11.52C3.87254 11.6398 3.14788 12.1791 2.64797 12.3635C2.55166 12.4373 2.25354 12.617 1.89581 12.8291C1.71694 12.9351 1.5289 13.0503 1.34544 13.161C1.12988 13.29 0.923497 13.4145 0.744629 13.5251C0.744629 13.6358 0.749217 13.7372 0.753803 13.8294C0.753803 13.8662 0.753801 13.9031 0.758387 13.9354C0.758387 13.963 0.758385 13.9953 0.762971 14.0183C0.762971 14.0691 0.772143 14.1105 0.77673 14.1474C0.767557 14.7144 0.758389 15.2814 0.781321 15.793L0.721696 16.0373L0.804254 17.2911C0.767563 18.0517 0.744626 18.3698 0.698762 17.6138C0.772144 19.4392 0.726284 19.0935 0.795079 20.6469L0.753803 20.5732C0.753803 21.1263 0.808834 22.0159 0.77673 22.3524C0.703348 23.5924 0.767558 28.497 0.698762 31.6822C0.813422 31.0645 0.648313 33.1619 0.735454 33.291C0.707936 33.4753 0.69418 33.9225 0.666661 33.4062C0.69418 35.0334 0.62538 35.8493 0.698762 36.974C0.671244 37.1584 0.657487 36.6237 0.643728 36.7896C0.648314 36.9187 0.666662 37.3059 0.652903 37.4764C0.634557 37.6424 0.62997 37.2367 0.616211 36.9786L0.620795 36.9924ZM45.1315 14.7421C45.1499 15.1293 45.1545 15.7469 45.1315 16.3185V14.7421ZM29.7259 6.91039L29.5104 6.7721C30.0194 7.04407 29.8727 6.97954 29.7259 6.91039ZM35.1745 7.68941C35.1745 7.68941 35.1562 7.68019 35.147 7.67558C34.6058 7.34369 34.7984 7.46354 35.1745 7.68941ZM30.4368 5.12188C31.6751 5.8041 30.9459 5.47682 31.166 5.58745C33.4684 6.91961 33.2024 6.56928 35.0966 7.72168C35.835 8.20568 35.0828 7.84153 35.2341 7.9752C34.2206 7.42205 33.7115 7.06712 33.0327 6.67991L33.8582 7.18236C33.5326 7.01641 32.8538 6.64765 32.4961 6.42639C32.5695 6.47709 32.6841 6.54624 32.8263 6.63382L28.0794 3.928C28.561 4.14004 29.4186 4.56873 30.4414 5.12188H30.4368ZM22.7959 1.11616C22.7638 1.15304 22.8876 1.10233 22.9794 1.06546L21.9841 1.63244C22.2455 1.45727 22.5391 1.27289 22.8005 1.11616H22.7959ZM16.0952 4.82687C16.219 4.76233 17.9527 3.85886 18.3655 3.66526C18.4389 3.63299 18.4847 3.61455 18.5031 3.61455L17.2923 4.30599L17.2326 4.24606L17.1226 4.40279L15.9347 5.08039C15.9026 5.02508 15.9484 4.9375 16.0906 4.82687H16.0952ZM10.0091 8.28404L10.298 8.15959L11.3758 7.50042C11.1052 7.69863 10.6145 8.04435 10.0687 8.42233L8.25252 9.45948C8.74785 9.09994 9.35783 8.68508 10.0091 8.28404ZM0.905148 39.7259C0.900561 39.6614 0.891392 39.5968 0.886805 39.5369C0.891392 39.6614 0.900561 39.7951 0.905148 39.938V40.2975C0.886802 40.5649 0.868458 40.7953 0.863872 40.9567L0.831771 39.3018C0.840944 39.1036 0.863871 39.2696 0.891389 39.5415C0.886803 39.4309 0.882217 39.3203 0.877631 39.2373C0.886803 39.0022 0.900566 38.91 0.909738 38.91V39.7305L0.905148 39.7259ZM0.905148 17.434V18.462L0.818012 17.4479C0.840944 17.5354 0.873043 17.494 0.905148 17.434ZM0.781321 14.1705C0.785907 14.2073 0.79049 14.2396 0.799663 14.258C0.79049 14.2765 0.785907 14.4194 0.781321 14.1705Z" fill="#FFCE5D"/>
</svg>
