<svg width="50" height="78" viewBox="0 0 50 78" fill="none" xmlns="http://www.w3.org/2000/svg">
<ellipse cx="25.3146" cy="25.9433" rx="20.1261" ry="25.0752" fill="#FFCE5D"/>
<path fill-rule="evenodd" clip-rule="evenodd" d="M10.0647 34.5947C4.82081 34.5947 0.569824 38.8457 0.569824 44.0896C0.569824 47.5021 2.37013 50.4942 5.07279 52.1678C4.92794 53.0388 4.89689 53.9454 4.99479 54.8706L6.49547 69.052C7.03378 74.1391 11.3245 77.9997 16.4399 77.9997H34.0792C39.115 77.9997 43.3652 74.2551 43.9996 69.2594L45.8004 55.078C45.9503 53.8974 45.8888 52.7437 45.6471 51.6524C47.9279 49.9182 49.4004 47.1758 49.4004 44.0896C49.4004 38.8457 45.1494 34.5947 39.9056 34.5947H10.0647Z" fill="#5AAB8E"/>
</svg>
