<svg width="48" height="40" viewBox="0 0 48 40" fill="none" xmlns="http://www.w3.org/2000/svg">
<path d="M13.3561 26.5277C17.0764 26.5277 20.0927 29.5436 20.0927 33.2639C20.0927 36.9842 17.0768 40 13.3565 40C9.63628 40 6.62043 36.9841 6.62043 33.2639C6.62438 29.5452 9.63789 26.5317 13.3561 26.5277ZM13.3564 35.3703C14.5199 35.3703 15.463 34.4272 15.463 33.2639C15.463 32.1005 14.5199 31.1573 13.3565 31.1573C12.1932 31.1573 11.2501 32.1005 11.2501 33.2638C11.2514 34.4267 12.1938 35.3689 13.3564 35.3703ZM33.884 26.5277C37.6043 26.5277 40.6206 29.5436 40.6206 33.2639C40.6206 36.9842 37.6047 40 33.8844 40C30.1642 40 27.1483 36.9841 27.1483 33.2639C27.1523 29.5452 30.1658 26.5317 33.884 26.5277ZM33.8843 35.3703C35.0477 35.3702 35.9909 34.4272 35.9909 33.2639C35.9909 32.1005 35.0478 31.1573 33.8844 31.1573C32.7211 31.1573 31.778 32.1005 31.778 33.2638C31.7793 34.4267 32.7216 35.3689 33.8843 35.3703ZM47.2409 31.5787C47.2409 33.7878 45.45 35.5787 43.2409 35.5787H40.6205C39.3421 35.5787 38.3057 34.5423 38.3057 33.2639V33.102C38.3057 31.913 39.2696 30.9492 40.4585 30.9492C41.6475 30.9492 42.6113 29.9854 42.6113 28.7964V26.1774C42.6113 24.7299 41.8293 23.3953 40.5665 22.6878L39.8251 22.2724C39.1262 21.8808 38.5609 21.2883 38.2026 20.5717L34.1909 12.5484C33.9132 11.993 33.7686 11.3805 33.7686 10.7596V8.62967C33.7686 6.42053 31.9778 4.62967 29.7686 4.62967H8.62967C6.42053 4.62967 4.62967 6.42053 4.62967 8.62967V28.7964C4.62967 29.9854 5.59349 30.9492 6.78244 30.9492C7.97138 30.9492 8.93521 31.913 8.93521 33.102V33.264C8.93521 34.5424 7.89883 35.5788 6.6204 35.5788H4C1.79086 35.5788 0 33.788 0 31.5788V4C0 1.79086 1.79086 0 4 0H34.3982C36.6074 0 38.3982 1.79086 38.3982 4V9.66682C38.3982 10.2878 38.5428 10.9003 38.8205 11.4557L41.7071 17.2287C42.0655 17.9455 42.6309 18.5381 43.33 18.9297L45.1957 19.9747C46.4587 20.6822 47.2409 22.0169 47.2409 23.4645V31.5787ZM29.4631 33.2639C29.4631 34.5423 28.4267 35.5787 27.1484 35.5787H20.0926C18.8142 35.5787 17.7779 34.5423 17.7779 33.2639C17.7779 31.9856 18.8142 30.9492 20.0926 30.9492H27.1484C28.4268 30.9492 29.4631 31.9856 29.4631 33.2639ZM40.5048 20C40.5048 21.2784 39.4684 22.3148 38.19 22.3148H28.926C26.7168 22.3148 24.926 20.524 24.926 18.3148V12.8426C24.926 10.6334 26.7168 8.84256 28.926 8.84256H33.7686C35.047 8.84256 36.0834 9.87893 36.0834 11.1574C36.0834 12.4358 35.047 13.4722 33.7686 13.4722H31.6622C30.4988 13.4722 29.5557 14.4153 29.5557 15.5787C29.5557 16.7421 30.4988 17.6852 31.6622 17.6852H38.19C39.4684 17.6852 40.5048 18.7215 40.5048 20Z" fill="#5AAB8E"/>
</svg>
